<svg xmlns="http://www.w3.org/2000/svg" width="66" height="21" viewBox="0 0 66 21">
    <path
        d="M6.16332 14.2119C6.45832 13.5831 6.60581 12.911 6.64796 12.2172C6.6901 11.7185 6.62689 11.2199 6.52153 10.7429C6.35296 9.94066 6.05796 9.16013 5.63654 8.46633C5.38369 8.0327 5.10976 7.64243 4.79369 7.27385C4.41441 6.84022 3.99299 6.47164 3.50835 6.1681C3.04479 5.88624 2.53908 5.71279 1.94908 5.77783C1.84373 5.8212 1.69623 5.88624 1.5698 5.9296C1.06409 6.23314 0.790169 6.68845 0.642671 7.23049C0.495173 7.33889 0.347674 7.42562 0.200176 7.53403C0.136963 7.64243 0.0737491 7.77252 0.0316068 7.85925C-0.0105356 8.0327 -0.0105356 8.16279 0.0316068 8.31456C0.200176 8.76987 0.326603 9.24686 0.516244 9.68048C0.81124 10.3092 1.10624 10.9163 1.4223 11.5451C1.7173 12.1522 2.07551 12.7376 2.45479 13.3013C2.72872 13.7132 3.04479 14.0818 3.38192 14.4287C3.74013 14.7973 4.16156 15.0792 4.66727 15.2309C4.77262 15.2309 4.92012 15.2309 5.04655 15.2309C5.17298 15.1876 5.2994 15.1442 5.42583 15.0791C5.80511 14.8623 6.01582 14.5588 6.16332 14.2119ZM4.22477 13.5831C4.07727 13.4097 3.92978 13.2146 3.80335 13.0194C3.57157 12.6725 3.33978 12.3039 3.15014 11.9137C2.64443 10.938 2.20194 9.94066 1.82266 8.92163C1.73837 8.70482 1.69623 8.48801 1.63302 8.29287C1.59087 8.1411 1.61195 7.98934 1.65409 7.81588C1.67516 7.64243 1.7173 7.46898 1.75944 7.29553C1.80159 7.16544 1.8648 7.05704 1.97016 6.97031C2.07551 6.8619 2.20194 6.84022 2.34944 6.8619C2.39158 6.8619 2.45479 6.88358 2.51801 6.90526C2.85514 7.03535 3.17121 7.2088 3.44514 7.46898C4.33013 8.24951 4.96226 9.22517 5.32047 10.3743C5.42583 10.6995 5.51011 11.0247 5.53118 11.35C5.57333 11.6318 5.63654 11.892 5.5944 12.1738C5.55226 12.5858 5.48904 12.9977 5.36262 13.388C5.2994 13.5615 5.19405 13.7349 5.10976 13.9084C5.06762 13.9951 4.98333 14.0601 4.85691 14.0601C4.60405 13.9951 4.41441 13.7999 4.22477 13.5831Z" />
    <path
        d="M9.2216 19.719C9.26375 19.5889 9.30589 19.4371 9.34803 19.2637C9.34803 18.8517 9.3691 18.4398 9.3691 18.0278C9.3691 17.0522 9.3691 16.0548 9.39017 15.0791C9.39017 14.9274 9.3691 14.7539 9.39017 14.6022C9.45339 14.2769 9.45339 13.93 9.45339 13.6048C9.47446 12.9977 9.47446 12.3907 9.49553 11.7619C9.49553 11.6318 9.47446 11.5017 9.49553 11.35C9.60089 10.8513 9.55874 10.3309 9.60089 9.83225C9.60089 9.6588 9.57981 9.50703 9.62196 9.35526C9.70624 8.87827 9.68517 8.40128 9.72731 7.94597C9.72731 7.88093 9.74838 7.83757 9.76945 7.75084C9.8116 7.81588 9.87481 7.83757 9.87481 7.88093C9.98017 8.29287 10.0645 8.68314 10.1487 9.09509C10.2119 9.50703 10.2962 9.8973 10.3805 10.3092C10.4648 10.7212 10.528 11.1115 10.5912 11.5234C10.6334 11.7619 10.6966 11.9787 10.7387 12.2172C10.8019 12.7159 10.9073 13.1929 11.0127 13.6699C11.1391 14.342 11.2655 15.0141 11.413 15.6862C11.6026 16.6402 11.7923 17.5725 12.0241 18.5048C12.1294 19.0035 12.2559 19.5022 12.4455 19.9791C12.5509 20.196 12.6351 20.4128 12.7616 20.6079C12.9512 20.8464 13.183 21.0199 13.4991 20.9982C13.5833 20.9982 13.6466 20.9765 13.7098 20.9765C14.0048 20.8681 14.2155 20.6729 14.384 20.4345C14.5315 20.2176 14.679 20.0008 14.7844 19.784C15.0794 19.1769 15.2901 18.5482 15.4587 17.8977C15.7115 16.857 15.8801 15.9681 16.0487 14.884C16.0908 14.6238 16.1119 14.342 16.1751 14.0818C16.2594 13.6915 16.2804 13.3013 16.3647 12.911C16.4279 12.6508 16.449 12.369 16.4912 12.1088C16.5122 11.7185 16.6176 11.3283 16.6387 10.938C16.744 10.6778 16.7019 10.3743 16.7651 10.1141C16.8283 9.91898 16.8283 9.72385 16.8494 9.52871C16.8704 9.3119 16.9126 9.09509 16.9547 8.89995C16.9969 8.53137 17.039 8.1411 17.1022 7.7942C17.1444 7.59907 17.1654 7.40394 17.1865 7.2088C17.2076 7.01367 17.2708 6.81854 17.2919 6.62341C17.3129 6.25482 17.4394 5.88624 17.4394 5.51766C17.5236 5.25748 17.5026 4.9973 17.5658 4.75881C17.6079 4.49863 17.629 4.23845 17.6711 3.99996C17.6711 3.9566 17.6711 3.91323 17.6922 3.86987C17.7554 3.50129 17.8186 3.11102 17.8608 2.72076C17.924 2.37385 17.9872 2.02695 18.0083 1.65837C18.1136 1.35483 18.0926 1.05129 18.1347 0.726067C18.1347 0.639342 18.1347 0.530935 18.1136 0.422528C18.0926 0.249078 17.9661 0.118988 17.7976 0.0322626C17.6079 -0.0327807 17.334 -0.0110996 17.1865 0.205714C17.1444 0.249078 17.1233 0.314121 17.0601 0.400847C17.0601 0.877838 16.9547 1.37651 16.9547 1.87518C16.9547 2.13536 16.9547 2.39553 16.9126 2.65571C16.8704 2.89421 16.8494 3.15438 16.8283 3.41456C16.8283 3.50129 16.8283 3.60969 16.8072 3.69642C16.7229 3.97828 16.7229 4.26014 16.7019 4.52031C16.7019 4.62872 16.7019 4.71544 16.6808 4.82385C16.6176 4.9973 16.6176 5.17075 16.5965 5.34421C16.5965 5.45261 16.5965 5.53934 16.5754 5.64774C16.5122 5.84288 16.4912 6.05969 16.4912 6.2765C16.4701 6.38491 16.4701 6.47164 16.449 6.58004C16.3858 6.77518 16.3858 6.97031 16.3647 7.16544C16.3647 7.25217 16.3437 7.36057 16.3226 7.4473C16.2594 7.64243 16.2804 7.83756 16.2383 8.0327C16.2172 8.24951 16.1751 8.46633 16.154 8.68314C16.1119 9.07341 16.0065 9.44199 16.0065 9.85394C15.9012 10.3092 15.859 10.7862 15.7958 11.2415C15.7326 11.5668 15.6694 11.892 15.6483 12.2389C15.543 12.6075 15.564 13.0194 15.4797 13.4097C15.3955 13.7132 15.3955 14.0601 15.3322 14.3853C15.269 14.6889 15.2269 14.9707 15.1847 15.2526C15.1215 15.5561 15.0583 15.838 15.0162 16.1199C14.9108 16.7053 14.7844 17.2907 14.6369 17.8544C14.4894 18.3964 14.2998 18.8951 14.0469 19.3937C13.9415 19.6106 13.794 19.8274 13.6466 20.0225C13.5833 20.0876 13.5201 20.1309 13.4148 20.0659C13.3726 20.0008 13.3094 19.8924 13.2673 19.784C13.0566 19.3721 12.9512 18.8951 12.8248 18.4614C12.593 17.6376 12.4244 16.8137 12.2559 15.9898C12.0873 15.0575 11.8976 14.1252 11.7501 13.2146C11.6448 12.5641 11.5184 11.9353 11.3919 11.2849C11.2866 10.6778 11.1812 10.0491 11.0759 9.44199C11.0127 9.16013 10.9916 8.89995 10.9284 8.6181C10.823 8.07606 10.7177 7.53403 10.6123 7.01367C10.528 6.55836 10.4437 6.12473 10.2962 5.69111C10.2541 5.56102 10.2119 5.43093 10.1277 5.32252C10.0855 5.2358 10.0223 5.14907 9.91695 5.12739C9.83267 5.08403 9.74838 5.04066 9.68517 5.01898C9.32696 5.06235 9.13732 5.25748 9.03196 5.56102C9.01089 5.60438 9.01089 5.64774 9.01089 5.66943C8.88447 6.05969 8.84232 6.44996 8.80018 6.84022C8.73697 7.31721 8.63161 7.7942 8.65268 8.29287C8.65268 8.35792 8.63161 8.42296 8.63161 8.46633C8.54733 8.70482 8.5684 8.94332 8.54733 9.18181C8.52625 9.52871 8.54733 9.8973 8.46304 10.2442C8.44197 10.3526 8.46304 10.4827 8.44197 10.5911C8.44197 10.938 8.4209 11.3066 8.4209 11.6535C8.4209 11.7836 8.4209 11.892 8.39983 12.0004C8.33661 12.2606 8.33661 12.5207 8.33661 12.7809C8.31554 13.2796 8.31554 13.7999 8.29447 14.3203C8.29447 14.4504 8.31554 14.6022 8.2734 14.7322C8.23126 14.9707 8.23126 15.2309 8.23126 15.4911C8.21019 16.0114 8.21019 16.5535 8.21019 17.0955C8.21019 17.6376 8.16805 18.1796 8.06269 18.7433C7.9784 18.8951 7.85198 19.0035 7.80983 19.1986C7.80983 19.242 7.78876 19.307 7.78876 19.3504C7.80983 19.5022 7.85198 19.6322 7.87305 19.719C8.02055 19.9791 8.23126 20.0876 8.48411 20.1526C8.5684 20.1526 8.67375 20.1309 8.77911 20.1309C8.98982 20.0442 9.11625 19.9141 9.2216 19.719Z" />
    <path
        d="M31.2984 17.0738C31.2774 16.9221 31.2774 16.792 31.2563 16.6619C31.2142 16.4884 31.1931 16.2933 31.1931 16.1199C31.172 15.5778 31.172 15.0141 31.0877 14.4721C31.0456 14.0601 31.0667 11.892 31.0877 11.4584C31.1088 11.4367 31.1299 11.3933 31.1509 11.3933C31.467 11.3716 33.7638 11.3933 33.9745 11.415C33.9955 11.415 34.0166 11.415 34.0377 11.4367C34.122 11.5668 34.143 11.7185 34.1641 11.8703C34.1641 12.1088 34.1641 12.3473 34.2063 12.5858C34.2484 12.8243 34.2695 13.0411 34.2905 13.2796C34.3116 13.4314 34.3116 13.5615 34.3327 13.6915C34.3748 13.865 34.3959 14.0384 34.3959 14.2336C34.417 14.342 34.3959 14.4721 34.438 14.5805C34.5013 14.819 34.5013 15.0791 34.5223 15.3393C34.5434 15.4477 34.5434 15.5778 34.5645 15.6862C34.6066 15.8597 34.6277 16.0331 34.6277 16.2066C34.6488 16.4017 34.6488 16.5752 34.6909 16.7486C34.733 16.8787 34.733 17.0088 34.733 17.1606C34.7541 17.3123 34.7541 17.4641 34.7752 17.6159C34.7752 17.8327 34.8384 18.0495 34.8805 18.2663C34.8805 18.288 34.9016 18.288 34.9438 18.353C35.007 18.4181 35.1123 18.5048 35.1755 18.5699C35.3862 18.6349 35.5548 18.6349 35.7023 18.5699C35.9762 18.4398 36.0605 18.2013 36.1027 17.9628C36.0605 17.6809 36.0395 17.3991 35.9762 17.1389C35.892 16.8137 35.892 16.4668 35.7866 16.1415C35.7655 15.7296 35.6391 15.3393 35.6602 14.9057C35.6602 14.884 35.6602 14.8407 35.6391 14.7973C35.5548 14.5588 35.5548 14.2986 35.5548 14.0384C35.5337 13.93 35.5337 13.8433 35.5127 13.7349C35.4495 13.5181 35.4495 13.2796 35.4284 13.0411C35.4284 12.8676 35.4073 12.6942 35.3652 12.5207C35.323 12.2606 35.302 11.7619 35.323 11.3933C35.3652 11.3283 35.4284 11.2849 35.5127 11.2849C35.9341 11.2849 36.3344 11.1982 36.7348 11.1115C36.9455 11.003 37.0719 10.873 37.1562 10.6995C37.1984 10.461 37.1352 10.2659 36.9877 10.1141C36.7769 9.96234 36.5873 9.94066 36.3555 9.98402C36.3134 9.98402 36.2502 10.0274 36.208 10.0274C35.913 10.1141 35.597 10.1792 35.302 10.2442C35.2809 10.2659 35.2388 10.2442 35.1966 10.2225C35.1334 10.1792 35.1123 10.0924 35.1123 10.0274C35.0913 9.70216 35.1123 9.37694 35.0491 9.07341C35.007 8.70482 34.9859 8.33624 34.9648 7.96765C34.9648 7.83756 34.9648 7.72916 34.9438 7.59907C34.8595 7.29553 34.8805 6.97031 34.8595 6.66677C34.8595 6.38491 34.8595 6.10305 34.8173 5.84288C34.7752 5.51766 34.7541 5.21412 34.7541 4.8889C34.733 4.62872 34.733 4.34686 34.733 4.065C34.6698 3.91323 34.6277 3.76146 34.5855 3.60969C34.5013 3.52297 34.438 3.43624 34.3538 3.3712C34.2273 3.32783 34.122 3.30615 33.9955 3.26279C33.8902 3.28447 33.7427 3.32783 33.6795 3.34952C33.4056 3.52297 33.3213 3.7181 33.3423 3.97828C33.3423 4.10837 33.3634 4.21677 33.3845 4.32518C33.4688 4.62872 33.4688 4.91058 33.4898 5.21412C33.4898 5.32252 33.4898 5.45261 33.5109 5.56102C33.5741 5.84288 33.5952 6.10305 33.5952 6.38491C33.6163 6.515 33.5952 6.62341 33.6163 6.73181C33.7006 7.05703 33.7006 7.36057 33.7216 7.6858C33.7638 8.18447 33.8481 8.70482 33.8481 9.20349C33.8481 9.24686 33.8691 9.29022 33.8691 9.33358C33.9534 9.6588 33.9323 9.98402 33.9534 10.3092C33.9113 10.3526 33.8902 10.3743 33.8691 10.396C33.3002 10.461 31.8674 10.461 31.1509 10.4177C31.1299 10.396 31.1088 10.3743 31.0877 10.3309C31.0667 9.94066 31.0667 9.5504 31.1088 9.16013C31.1509 8.79155 31.1509 8.44464 31.172 8.09774C31.1931 7.81588 31.172 7.53403 31.2142 7.27385C31.2774 6.92695 31.2774 6.60173 31.2984 6.25482C31.3195 6.14642 31.2984 6.01633 31.3406 5.90792C31.4038 5.66943 31.4038 5.40925 31.4249 5.14907C31.4249 5.06235 31.4249 4.95394 31.4459 4.86721C31.5513 4.28182 31.6145 3.69642 31.7409 3.15438C31.6777 2.89421 31.6145 2.69907 31.4249 2.52562C31.3617 2.48226 31.2774 2.4389 31.2142 2.39553C31.1509 2.39553 31.0877 2.37385 31.0245 2.37385C30.9613 2.37385 30.877 2.39553 30.8138 2.39553C30.4767 2.59067 30.4345 2.61235 30.3081 2.87253C30.2449 2.98093 30.2027 3.08934 30.1606 3.17607C30.1395 3.34952 30.1185 3.50129 30.1817 3.65306C30.2238 3.73978 30.2449 3.84819 30.287 3.91323C30.2659 4.26014 30.266 4.56367 30.2238 4.86721C30.1606 5.17075 30.1606 5.47429 30.1395 5.75615C30.1395 6.05969 30.1395 6.36323 30.0974 6.64509C30.0552 6.94863 30.0552 7.23048 30.0342 7.53403C30.0342 8.29287 30.0131 9.0734 30.0131 9.83225C29.992 9.96234 30.0131 10.0707 29.992 10.1792C29.992 10.2659 29.9499 10.3526 29.8656 10.3743C29.5285 10.3309 29.1913 10.3309 28.8331 10.3309C28.6645 10.3092 28.496 10.3309 28.3274 10.2876C27.8849 10.2008 27.4213 10.1575 26.9788 10.0057C26.7681 9.94066 26.5785 9.8973 26.3678 9.85394C26.136 9.81057 25.9464 9.8973 25.7778 10.0274C25.6514 10.1358 25.6092 10.2876 25.5881 10.4827C25.6092 10.5911 25.6514 10.7212 25.6724 10.8079C25.7989 11.003 25.9674 11.0681 26.136 11.1331C26.2835 11.1331 26.431 11.1331 26.5785 11.1765C26.8524 11.2632 27.1263 11.2632 27.3792 11.2849C27.5056 11.2849 27.611 11.2849 27.7374 11.3066C28.201 11.3933 28.6856 11.3716 29.1492 11.3066C29.402 11.2849 29.6549 11.2849 29.9077 11.3283C29.9288 11.3716 29.971 11.4367 30.0131 11.48C30.0131 11.6752 29.992 11.8703 30.0131 12.0654C30.0131 12.911 30.0342 13.7566 30.0552 14.6022C30.0552 14.7756 30.0342 14.9274 30.0763 15.0791C30.1185 15.3176 30.1185 15.5561 30.1395 15.7946C30.1395 16.0765 30.1395 16.38 30.1817 16.6836C30.2238 17.0088 30.2449 17.334 30.2238 17.6809C30.2238 17.811 30.2238 17.9411 30.287 18.0929C30.3713 18.2013 30.4556 18.288 30.582 18.353C30.877 18.4181 31.1299 18.3314 31.2774 18.0278C31.2984 17.9628 31.3195 17.8544 31.3617 17.7676C31.3195 17.4858 31.3195 17.2907 31.2984 17.0738Z" />
    <path
        d="M39.5776 18.4398C39.6408 18.6132 39.683 18.7867 39.7251 18.9384C39.7672 19.0902 39.8515 19.2203 39.978 19.307C40.0201 19.3287 40.0622 19.3721 40.1044 19.3721C40.294 19.4154 40.4837 19.3937 40.6101 19.242C40.6312 19.1986 40.6733 19.1553 40.6944 19.1119C40.6944 19.0468 40.7154 19.0035 40.7154 18.9601C40.7154 18.8734 40.7154 18.7867 40.7154 18.6999C40.5469 18.288 40.3362 17.8977 40.2519 17.4858C40.2729 17.3774 40.3362 17.334 40.3994 17.269C40.7576 16.9221 41.1158 16.5752 41.5161 16.2499C42.0008 15.838 42.4854 15.4477 43.0333 15.1008C43.4336 14.8407 43.855 14.6022 44.3186 14.4504C44.5715 14.3637 44.8033 14.342 45.0561 14.407C45.0982 14.4287 45.1404 14.4287 45.1825 14.4504C45.309 14.407 45.4143 14.3853 45.5197 14.342C45.6672 14.2553 45.7936 14.1469 45.8779 13.9517C45.8779 13.865 45.8779 13.7349 45.8779 13.6265C45.8779 13.5831 45.8568 13.5181 45.8357 13.4747C45.7093 13.2796 45.4143 13.1061 45.2036 13.1712C44.9929 13.2146 44.7822 13.2579 44.5715 13.323C44.1079 13.453 43.6654 13.6482 43.244 13.9084C42.6329 14.2553 42.0429 14.6889 41.4951 15.1442C41.0315 15.5345 40.5679 15.9247 40.1255 16.3367C40.1044 16.3584 40.0833 16.38 40.0412 16.4017C40.0201 16.4017 39.999 16.4017 39.9569 16.4017C39.9358 16.38 39.9147 16.3367 39.9147 16.315C39.7672 15.7946 39.704 15.2743 39.6197 14.7539C39.5776 14.3637 39.4933 13.9517 39.4933 13.5398C39.4933 13.388 39.4301 13.2362 39.4301 13.0845C39.409 12.6075 39.388 12.1305 39.3458 11.6535C39.3037 11.1982 39.3247 10.6995 39.3247 10.2225C39.3247 10.1792 39.3458 10.1358 39.3669 10.0924C39.4512 10.0491 39.5144 10.0057 39.5987 10.0057C39.7883 9.98402 39.978 9.91898 40.1887 9.87562C40.6522 9.78889 41.1158 9.6588 41.5794 9.5504C41.8954 9.46367 42.1694 9.35526 42.4644 9.18181C42.5908 9.11677 42.6961 9.00836 42.8015 8.89995C42.9701 8.66146 43.0333 8.42296 42.9068 8.1411C42.8226 7.94597 42.7172 7.77252 42.5697 7.64243C42.5276 7.59907 42.4854 7.57739 42.4433 7.53403C42.359 7.49066 42.2747 7.46898 42.1904 7.42562C41.8533 7.46898 41.6636 7.64243 41.6215 8.01102C41.6426 8.07606 41.6636 8.1411 41.6847 8.22783C41.7058 8.31456 41.8322 8.3796 41.7901 8.50969C41.7479 8.53137 41.7269 8.57473 41.6847 8.59641C41.4319 8.70482 41.179 8.79155 40.9262 8.85659C40.6733 8.92163 40.3994 8.94332 40.1465 8.98668C39.8937 9.05172 39.6619 9.05172 39.409 9.05172C39.388 9.03004 39.3669 9.00836 39.3458 8.98668C39.3458 8.79155 39.3247 8.6181 39.3458 8.46633C39.409 8.09774 39.388 7.75084 39.409 7.38226C39.4301 7.2088 39.409 7.01367 39.4512 6.84022C39.4933 6.55836 39.4933 6.29819 39.5144 6.01633C39.5355 5.90792 39.5565 5.77783 39.5565 5.66943C39.5776 5.56102 39.5987 5.47429 39.5987 5.36589C39.6197 5.06235 39.683 4.75881 39.7251 4.45527C39.8726 4.3035 40.0201 4.21677 40.1676 4.13005C40.7154 3.80483 41.2844 3.52297 41.8744 3.28447C42.2747 3.1327 42.6751 2.98093 43.0754 2.82916C43.1597 2.80748 43.244 2.7858 43.3283 2.74244C43.5811 2.63403 43.7286 2.4389 43.7708 2.13536C43.6443 1.76677 43.6443 1.76678 43.2651 1.59332C43.1808 1.59332 43.0965 1.59332 43.0543 1.59332C42.7593 1.65837 42.6329 1.83182 42.4854 1.94023C42.1904 2.04863 41.9165 2.15704 41.6636 2.26545C41.3897 2.39553 41.1158 2.50394 40.8419 2.63403C40.589 2.74244 40.3572 2.91589 40.0833 3.00261C39.999 2.82916 40.0622 2.65571 39.999 2.50394C39.9358 2.37385 39.8515 2.28713 39.7251 2.22208C39.4722 2.13536 39.2405 2.17872 39.0087 2.39553C38.8401 2.63403 38.6294 2.87253 38.3765 3.04598C38.229 3.1327 38.1026 3.26279 38.0394 3.41456C37.9973 3.58801 37.9762 3.76146 38.0394 3.99996C38.0394 4.065 38.1658 4.15173 38.1869 4.3035C38.0605 4.45527 37.9551 4.60704 37.9551 4.80217C37.9551 4.93226 37.9973 5.01898 38.0815 5.12739C38.1026 5.17075 38.1658 5.21412 38.229 5.25748C38.3555 5.27916 38.4819 5.27916 38.6083 5.30084C38.6505 5.30084 38.6715 5.34421 38.6926 5.36589C38.6926 5.47429 38.7137 5.56102 38.6926 5.66943C38.6294 5.90792 38.6294 6.14642 38.6294 6.38491C38.6083 6.71013 38.6083 7.05704 38.6083 7.40394C38.5873 7.51234 38.6083 7.59907 38.5873 7.70748C38.524 7.98933 38.5451 8.29287 38.5451 8.57473C38.5451 8.81323 38.5451 9.05172 38.5451 9.24686C38.4819 9.39863 38.4608 9.50703 38.4187 9.61544C38.524 9.98402 38.524 9.98402 38.5451 10.3743C38.5451 10.4393 38.5451 10.5261 38.5451 10.5911C38.6083 10.8296 38.5873 11.0898 38.6083 11.35C38.6294 11.8703 38.6083 12.4123 38.6926 12.9327C38.6926 12.9544 38.6926 12.9977 38.6926 13.0194C38.7137 13.4097 38.7137 13.7783 38.798 14.1469C38.819 14.2553 38.819 14.342 38.819 14.4504C38.819 14.5588 38.8401 14.6672 38.8612 14.7539C38.9033 14.9057 38.9033 15.0575 38.9244 15.2092C38.9244 15.296 38.9244 15.3827 38.9455 15.4694C39.0508 15.903 39.0719 16.38 39.1983 16.8137C39.2194 16.9221 39.2405 17.0522 39.1983 17.1822C38.9244 17.5291 38.524 17.746 38.229 18.0929C38.208 18.1796 38.1658 18.223 38.1658 18.288C38.1448 18.353 38.1237 18.4398 38.1448 18.5048C38.1869 18.6349 38.2501 18.7867 38.4398 18.8734C38.524 18.8734 38.6294 18.8734 38.7137 18.8734C38.8823 18.8083 38.9876 18.7433 39.0719 18.6349C39.1772 18.5265 39.2826 18.4181 39.388 18.3097C39.409 18.288 39.4512 18.288 39.4722 18.288C39.5355 18.3314 39.5776 18.3964 39.5776 18.4398Z" />
    <path
        d="M49.6193 18.4398C49.6825 18.6132 49.7247 18.7867 49.7668 18.9384C49.809 19.0902 49.8933 19.2203 50.0197 19.307C50.0618 19.3287 50.104 19.3721 50.1461 19.3721C50.3358 19.4154 50.5254 19.3937 50.6518 19.242C50.6729 19.1986 50.715 19.1553 50.7361 19.1119C50.7361 19.0468 50.7572 19.0035 50.7572 18.9601C50.7572 18.8734 50.7572 18.7867 50.7572 18.6999C50.5886 18.288 50.3779 17.8977 50.2936 17.4858C50.3147 17.3774 50.3779 17.334 50.4411 17.269C50.7993 16.9221 51.1575 16.5752 51.5579 16.2499C52.0425 15.838 52.5272 15.4477 53.075 15.1008C53.4754 14.8407 53.8968 14.6022 54.3603 14.4504C54.6132 14.3637 54.845 14.342 55.0978 14.407C55.14 14.4287 55.1821 14.4287 55.2243 14.4504C55.3507 14.407 55.4561 14.3853 55.5614 14.342C55.7089 14.2553 55.8353 14.1469 55.9196 13.9517C55.9196 13.865 55.9196 13.7349 55.9196 13.6265C55.9196 13.5831 55.8985 13.5181 55.8775 13.4747C55.751 13.2796 55.456 13.1061 55.2453 13.1712C55.0346 13.2146 54.8239 13.2579 54.6132 13.323C54.1496 13.453 53.7071 13.6482 53.2857 13.9084C52.6747 14.2553 52.0847 14.6889 51.5368 15.1442C51.0732 15.5345 50.6097 15.9247 50.1672 16.3367C50.1461 16.3584 50.125 16.38 50.0829 16.4017C50.0618 16.4017 50.0408 16.4017 49.9986 16.4017C49.9775 16.38 49.9565 16.3367 49.9565 16.315C49.809 15.7946 49.7458 15.2743 49.6615 14.7539C49.6193 14.3637 49.535 13.9517 49.535 13.5398C49.535 13.388 49.4718 13.2362 49.4718 13.0845C49.4508 12.6075 49.4297 12.1305 49.3876 11.6535C49.3454 11.1982 49.3665 10.6995 49.3665 10.2225C49.3665 10.1792 49.3876 10.1358 49.4086 10.0924C49.4929 10.0491 49.5561 10.0057 49.6404 10.0057C49.83 9.98402 50.0197 9.91898 50.2304 9.87562C50.694 9.78889 51.1575 9.6588 51.6211 9.5504C51.9372 9.46367 52.2111 9.35526 52.5061 9.18181C52.6325 9.11677 52.7379 9.00836 52.8432 8.89995C53.0118 8.66146 53.075 8.42296 52.9486 8.1411C52.8643 7.94597 52.7589 7.77252 52.6114 7.64243C52.5693 7.59907 52.5272 7.57739 52.485 7.53403C52.4007 7.49066 52.3164 7.46898 52.2322 7.42562C51.895 7.46898 51.7054 7.64243 51.6632 8.01102C51.6843 8.07606 51.7054 8.1411 51.7264 8.22783C51.7475 8.31456 51.874 8.3796 51.8318 8.50969C51.7897 8.53137 51.7686 8.57473 51.7264 8.59641C51.4736 8.70482 51.2207 8.79155 50.9679 8.85659C50.715 8.92163 50.4411 8.94332 50.1883 8.98668C49.9354 9.05172 49.7036 9.05172 49.4508 9.05172C49.4297 9.03004 49.4086 9.00836 49.3876 8.98668C49.3876 8.79155 49.3665 8.6181 49.3876 8.46633C49.4508 8.09774 49.4297 7.75084 49.4508 7.38226C49.4718 7.2088 49.4508 7.01367 49.4929 6.84022C49.535 6.55836 49.535 6.29819 49.5561 6.01633C49.5772 5.90792 49.5983 5.77783 49.5983 5.66943C49.6193 5.56102 49.6404 5.47429 49.6404 5.36589C49.6615 5.06235 49.7247 4.75881 49.7668 4.45527C49.9143 4.3035 50.0618 4.21677 50.2093 4.13005C50.7572 3.80483 51.3261 3.52297 51.9161 3.28447C52.3164 3.1327 52.7168 2.98093 53.1171 2.82916C53.2014 2.80748 53.2857 2.7858 53.37 2.74244C53.6229 2.63403 53.7704 2.4389 53.8125 2.13536C53.6861 1.76677 53.6861 1.76678 53.3068 1.59332C53.2225 1.59332 53.1382 1.59332 53.0961 1.59332C52.8011 1.65837 52.6747 1.83182 52.5272 1.94023C52.2322 2.04863 51.9582 2.15704 51.7054 2.26545C51.4315 2.39553 51.1575 2.50394 50.8836 2.63403C50.6307 2.74244 50.399 2.91589 50.125 3.00261C50.0408 2.82916 50.104 2.65571 50.0408 2.50394C49.9775 2.37385 49.8933 2.28713 49.7668 2.22208C49.514 2.13536 49.2822 2.17872 49.0504 2.39553C48.8818 2.63403 48.6711 2.87253 48.4183 3.04598C48.2708 3.1327 48.1444 3.26279 48.0811 3.41456C48.039 3.58801 48.0179 3.76146 48.0811 3.99996C48.0811 4.065 48.2076 4.15173 48.2286 4.3035C48.1022 4.45527 47.9969 4.60704 47.9969 4.80217C47.9969 4.93226 48.039 5.01898 48.1233 5.12739C48.1444 5.17075 48.2076 5.21412 48.2708 5.25748C48.3972 5.27916 48.5236 5.27916 48.6501 5.30084C48.6922 5.30084 48.7133 5.34421 48.7343 5.36589C48.7343 5.47429 48.7554 5.56102 48.7343 5.66943C48.6711 5.90792 48.6711 6.14642 48.6711 6.38491C48.6501 6.71013 48.6501 7.05704 48.6501 7.40394C48.629 7.51234 48.6501 7.59907 48.629 7.70748C48.5658 7.98933 48.5868 8.29287 48.5868 8.57473C48.5868 8.81323 48.5868 9.05172 48.5868 9.24686C48.5236 9.39863 48.5026 9.50703 48.4604 9.61544C48.5658 9.98402 48.5658 9.98402 48.5868 10.3743C48.5868 10.4393 48.5868 10.5261 48.5868 10.5911C48.6501 10.8296 48.629 11.0898 48.6501 11.35C48.6711 11.8703 48.6501 12.4123 48.7343 12.9327C48.7343 12.9544 48.7343 12.9977 48.7343 13.0194C48.7554 13.4097 48.7554 13.7783 48.8397 14.1469C48.8608 14.2553 48.8608 14.342 48.8608 14.4504C48.8608 14.5588 48.8818 14.6672 48.9029 14.7539C48.9451 14.9057 48.9451 15.0575 48.9661 15.2092C48.9661 15.296 48.9661 15.3827 48.9872 15.4694C49.0926 15.903 49.1136 16.38 49.2401 16.8137C49.2611 16.9221 49.2822 17.0522 49.2401 17.1822C48.9661 17.5291 48.5658 17.746 48.2708 18.0929C48.2497 18.1796 48.2076 18.223 48.2076 18.288C48.1865 18.353 48.1654 18.4398 48.1865 18.5048C48.2286 18.6349 48.2918 18.7867 48.4815 18.8734C48.5658 18.8734 48.6711 18.8734 48.7554 18.8734C48.924 18.8083 49.0293 18.7433 49.1136 18.6349C49.219 18.5265 49.3243 18.4181 49.4297 18.3097C49.4508 18.288 49.4929 18.288 49.514 18.288C49.5772 18.3314 49.6193 18.3964 49.6193 18.4398Z" />
    <path
        d="M60.0119 4.9973C60.0962 5.25748 60.0962 5.49597 60.0962 5.75615C60.1172 6.10305 60.0962 6.47164 60.0962 6.81854C60.1172 8.24951 60.1172 9.6588 60.1383 11.0898C60.1383 11.2415 60.1172 11.3933 60.1383 11.5451C60.2226 11.9787 60.2015 12.4123 60.2226 12.846C60.2226 13.1278 60.2226 13.4097 60.2647 13.6699C60.3279 14.0601 60.3279 14.4504 60.349 14.8407C60.3911 15.296 60.4754 15.7513 60.4754 16.2066C60.4754 16.2499 60.4965 16.2716 60.4965 16.315C60.5176 16.4451 60.5597 16.5968 60.5597 16.7269C60.5808 17.0738 60.644 17.4207 60.7072 17.746C60.7704 17.9194 60.8758 18.0278 61.0444 18.1145C61.1286 18.1145 61.2129 18.1362 61.3183 18.1362C61.4658 18.1362 61.6133 18.0929 61.7186 17.9628C61.824 17.876 61.8872 17.7676 61.9293 17.5942C61.9293 17.5291 61.9504 17.4207 61.9293 17.334C61.8451 17.0522 61.8661 16.7703 61.7818 16.5101C61.7186 16.2283 61.7397 15.9247 61.6976 15.6429C61.6976 15.5995 61.6976 15.5561 61.6976 15.5128C61.6133 15.2309 61.6133 14.9274 61.6133 14.6455C61.5922 14.4287 61.6133 14.1902 61.5711 13.9951C61.5079 13.6915 61.5079 13.4097 61.5079 13.1061C61.4868 12.6075 61.4658 12.1088 61.4658 11.6318C61.4658 11.5017 61.4658 11.3933 61.4447 11.2632C61.3815 10.9597 61.4026 10.6345 61.4026 10.3309C61.4026 9.74553 61.4026 9.13845 61.4026 8.55305C61.4026 8.18447 61.3815 7.81588 61.4447 7.4473C61.4658 7.36057 61.4658 7.27385 61.4658 7.2088C61.4658 6.49332 61.4658 5.77783 61.4868 5.06235C61.4868 4.9973 61.4868 4.91058 61.4868 4.82385C61.5501 4.80217 61.6133 4.75881 61.6554 4.78049C61.9715 4.86721 62.3297 4.8889 62.6668 4.95394C63.025 5.04066 63.4043 5.10571 63.7836 5.19243C64.1629 5.27916 64.5422 5.34421 64.9004 5.40925C65.1954 5.47429 65.4693 5.51766 65.7854 5.43093C65.8486 5.38757 65.9118 5.32252 65.975 5.25748C65.975 5.14907 65.9961 5.08403 65.9961 4.9973C66.0172 4.82385 65.9539 4.6504 65.7854 4.54199C65.5747 4.45527 65.3639 4.39022 65.1322 4.39022C65.0268 4.39022 64.9425 4.39022 64.8372 4.36854C64.6265 4.32518 64.4368 4.28182 64.2261 4.28182C63.9732 4.28182 63.7625 4.17341 63.5308 4.17341C63.1725 4.15173 62.8143 4.02164 62.4561 4.02164C61.9504 3.86987 61.4026 3.80483 60.8758 3.69642C60.2226 3.56633 59.5694 3.41456 58.9162 3.28447C58.6422 3.24111 58.3683 3.15438 58.0733 3.08934C57.7994 3.04598 57.5255 2.95925 57.2305 2.93757C56.9144 2.82916 56.5983 2.85084 56.3033 2.87253C56.0716 2.93757 55.8819 3.04598 55.7766 3.24111C55.6712 3.43624 55.6923 3.63137 55.7344 3.82651C55.8187 3.97828 55.9241 4.08668 56.0716 4.15173C56.2612 4.19509 56.4508 4.17341 56.6405 4.15173C57.083 4.13005 57.5255 4.15173 57.968 4.19509C58.1787 4.26014 58.4105 4.26014 58.6422 4.28182C58.874 4.32518 59.0847 4.36854 59.3165 4.39022C59.5272 4.4119 59.7379 4.47695 59.9487 4.56367C59.9697 4.73713 59.9697 4.8889 60.0119 4.9973Z" />
</svg>