<svg width="126" height="115" viewBox="0 0 126 115" fill="none" xmlns="http://www.w3.org/2000/svg">
<path d="M76.1889 113.948C74.6089 113.948 73.8188 113.79 73.8188 112.763C73.8188 111.894 74.4509 111.42 76.0309 111.262C92.6209 109.919 95.9389 112.21 95.9389 99.5701V29.2601C95.9389 27.6801 95.9389 26.4951 94.7539 26.4951C91.5939 26.4951 80.6128 29.2601 75.8728 29.2601C74.6088 29.2601 73.8188 28.7861 73.8188 27.9171C73.8188 27.0481 74.6088 26.7321 75.8728 26.5741C93.5688 24.0461 95.7809 14.0921 101.153 3.19007C102.101 1.29408 102.259 0.820068 103.523 0.820068C104.787 0.820068 104.787 1.61007 104.787 3.19007C104.787 5.56008 103.839 9.51007 103.839 25.3101V99.5701C103.839 112.21 107.157 109.919 123.747 111.262C125.327 111.42 125.959 111.894 125.959 112.763C125.959 113.79 125.169 113.948 123.589 113.948C117.269 113.948 110.949 113 99.8889 113C88.8289 113 82.5089 113.948 76.1889 113.948Z" fill="#F7DEC9"/>
<path d="M29.6592 114.58C13.0692 114.58 0.429199 97.9901 0.429199 59.2801C0.429199 19.7801 13.0692 0.820068 32.8192 0.820068C49.4092 0.820068 62.0492 17.4101 62.0492 56.1201C62.0492 95.6201 49.4092 114.58 29.6592 114.58ZM34.0042 113C43.0892 113 53.3592 102.73 53.3592 61.6501C53.3592 21.3601 44.6692 2.40007 28.4742 2.40007C19.3892 2.40007 9.1192 12.6701 9.1192 53.7501C9.1192 94.0401 17.8092 113 34.0042 113Z" fill="#F7DEC9"/>
</svg>
