<svg width="139" height="115" viewBox="0 0 139 115" fill="none" xmlns="http://www.w3.org/2000/svg">
<path d="M77.9798 113.948C75.6098 113.948 74.8198 113.632 74.8198 112.052C74.8198 110.472 77.8218 108.418 82.0878 103.52C106.578 75.3961 125.38 54.5401 125.38 33.2101C125.38 9.51007 116.69 2.40007 105.235 2.40007C96.1498 2.40007 87.6178 6.19207 77.3478 30.2081C76.4788 32.1831 75.9258 32.4201 75.5308 32.4201C75.1358 32.4201 74.8198 32.1831 74.8198 31.2351C74.8198 28.8651 78.3748 18.0421 78.7698 10.1421C78.8488 7.77208 80.3498 5.24407 84.2998 4.61207C93.3058 3.03207 97.7298 0.820068 107.21 0.820068C121.43 0.820068 134.07 9.51007 134.07 30.0501C134.07 55.3301 112.503 71.4461 81.8508 106.68H109.58C114.636 106.68 118.507 106.917 121.509 106.917C129.883 106.917 132.095 105.179 136.44 92.4601C137.151 90.4851 137.704 90.2481 138.099 90.2481C138.494 90.2481 138.81 90.4851 138.81 91.4331C138.81 93.8031 136.124 102.098 135.65 109.208C135.492 111.262 134.386 113.948 130.436 113.948C127.276 113.948 122.22 113 109.58 113C90.6198 113 81.9298 113.948 77.9798 113.948Z" fill="#F7DEC9"/>
<path d="M29.833 114.58C13.243 114.58 0.603027 97.9901 0.603027 59.2801C0.603027 19.7801 13.243 0.820068 32.993 0.820068C49.583 0.820068 62.223 17.4101 62.223 56.1201C62.223 95.6201 49.583 114.58 29.833 114.58ZM34.178 113C43.263 113 53.533 102.73 53.533 61.6501C53.533 21.3601 44.843 2.40007 28.648 2.40007C19.563 2.40007 9.29303 12.6701 9.29303 53.7501C9.29303 94.0401 17.983 113 34.178 113Z" fill="#F7DEC9"/>
</svg>
