<svg width="137" height="115" viewBox="0 0 137 115" fill="none" xmlns="http://www.w3.org/2000/svg">
<path d="M75.5205 32.457C75.0576 32.457 74.8262 32.0456 74.8262 31.2227C74.8262 30.7598 75.4434 27.9053 76.6777 22.6592C77.9121 17.3617 78.6064 13.1956 78.7607 10.1611C78.8122 8.82389 79.2751 7.64095 80.1494 6.6123C81.0752 5.58366 82.4639 4.91504 84.3154 4.60645C86.527 4.24642 88.9958 3.7321 91.7217 3.06348C94.4476 2.34342 96.8649 1.80339 98.9736 1.44336C101.082 1.0319 103.294 0.826172 105.608 0.826172C108.334 0.826172 110.932 1.16048 113.4 1.8291C115.921 2.49772 118.286 3.55208 120.498 4.99219C122.71 6.38086 124.458 8.361 125.744 10.9326C127.081 13.4528 127.75 16.4102 127.75 19.8047C127.75 22.9421 127.21 25.8737 126.13 28.5996C125.101 31.3255 123.455 33.9486 121.192 36.4688C118.981 38.9889 116.743 41.2005 114.48 43.1035C112.269 44.9551 109.363 47.1924 105.763 49.8154C115.535 49.9697 123.095 52.8757 128.444 58.5332C133.793 64.1393 136.468 71.237 136.468 79.8262C136.468 84.4551 135.696 88.8268 134.153 92.9414C132.662 97.056 130.502 100.733 127.673 103.974C124.844 107.214 121.192 109.785 116.718 111.688C112.243 113.591 107.229 114.543 101.674 114.543C96.6335 114.543 92.2874 113.951 88.6357 112.769C84.984 111.586 81.1781 109.837 77.2178 107.522C75.6234 106.545 74.8262 105.722 74.8262 105.054C74.8262 104.437 75.109 104.128 75.6748 104.128C75.8805 104.128 77.2435 104.771 79.7637 106.057C82.2839 107.342 85.5755 108.628 89.6387 109.914C93.7018 111.2 97.7135 111.843 101.674 111.843C110.16 111.843 116.615 109.348 121.038 104.359C125.513 99.319 127.75 92.4528 127.75 83.7607C127.75 75.4287 126.027 68.7425 122.581 63.7021C119.135 58.6618 114.018 56.1416 107.229 56.1416C104.657 56.1416 101.905 56.5016 98.9736 57.2217C96.042 57.9417 94.3704 58.3018 93.959 58.3018C93.6504 58.3018 93.3161 58.1989 92.9561 57.9932C92.6475 57.736 92.4932 57.4274 92.4932 57.0674C92.4932 56.7074 93.1361 56.1673 94.4219 55.4473C102.291 50.9212 108.36 45.7266 112.629 39.8633C116.898 33.9486 119.032 27.5195 119.032 20.5762C119.032 14.25 117.875 9.64681 115.561 6.7666C113.246 3.83496 109.286 2.36914 103.68 2.36914C101.571 2.36914 99.5908 2.72917 97.7393 3.44922C95.9391 4.11784 93.9076 5.37793 91.6445 7.22949C89.4329 9.08105 87.1185 11.9355 84.7012 15.793C82.2839 19.6504 79.8408 24.4593 77.3721 30.2197C76.7549 31.7113 76.1377 32.457 75.5205 32.457Z" fill="#F7DEC9"/>
<path d="M29.8486 114.543C21.0537 114.543 13.9818 109.965 8.63281 100.811C3.28385 91.6556 0.609375 77.8203 0.609375 59.3047C0.609375 40.0176 3.46387 25.4622 9.17285 15.6387C14.9333 5.76367 22.8796 0.826172 33.0117 0.826172C41.8066 0.826172 48.8786 5.42936 54.2275 14.6357C59.5765 23.7907 62.251 37.626 62.251 56.1416C62.251 75.4287 59.3708 89.984 53.6104 99.8076C47.9014 109.631 39.9808 114.543 29.8486 114.543ZM34.1689 113C36.1234 113 37.9492 112.563 39.6465 111.688C41.3952 110.763 43.1439 109.117 44.8926 106.751C46.6413 104.334 48.1328 101.248 49.3672 97.4932C50.6016 93.7386 51.6045 88.8011 52.376 82.6807C53.1475 76.5602 53.5332 69.5397 53.5332 61.6191C53.5332 22.1191 45.2269 2.36914 28.6143 2.36914C26.6598 2.36914 24.8083 2.83203 23.0596 3.75781C21.3623 4.63216 19.6393 6.27799 17.8906 8.69531C16.1934 11.0612 14.7275 14.1214 13.4932 17.876C12.2588 21.6305 11.2559 26.568 10.4844 32.6885C9.71289 38.8089 9.32715 45.8294 9.32715 53.75C9.32715 93.25 17.6077 113 34.1689 113Z" fill="#F7DEC9"/>
</svg>
