<svg width="258" height="139" viewBox="0 0 258 139" fill="none" xmlns="http://www.w3.org/2000/svg">
<path d="M51.9237 4.74545C51.3674 5.04402 50.6828 5.81158 50.4689 6.45139C49.8271 8.20001 51.2819 9.39416 58.2994 12.7634C74.3456 20.4829 80.5928 27.5199 80.5928 37.9261C80.5928 53.1091 68.0982 72.557 49.9982 85.4369C40.4988 92.2181 26.3354 98.2316 26.5067 95.4168C26.5495 94.7345 35.4925 81.7264 42.5955 72.0025C50.1265 61.639 55.8174 54.8152 61.9365 48.8016L67.9699 42.9162L66.9429 42.1059C63.3058 39.1631 55.3469 44.6222 46.789 56.0093C36.7762 69.3158 22.5272 91.5358 21.2863 95.7154C19.6175 101.473 23.2118 102.752 32.3687 99.6816C45.1629 95.4168 62.8778 83.3898 73.0189 72.0879C87.4392 56.052 91.3758 38.7366 83.9732 24.1081C80.55 17.3269 73.618 11.1002 65.4023 7.34711C58.9838 4.48969 54.2771 3.55144 51.9236 4.74558L51.9237 4.74545Z" fill="#F7B219"/>
<path d="M167.457 12.8911C160.867 15.4074 154.021 20.4826 144.521 29.9506C136.177 38.3097 133.182 41.935 128.09 49.9103C121.415 60.3592 116.109 71.8317 114.611 79.0392C112.943 86.8866 114.569 95.7576 118.805 101.942C120.259 104.117 120.816 104.373 121.672 103.349C122.142 102.795 122.014 102.027 120.987 98.9564C116.708 86.2043 123.383 66.9699 139.857 44.5792C146.19 36.0068 161.851 20.909 167.371 18.0943C168.484 17.4971 168.954 17.4545 169.425 17.881C171.393 19.5018 168.697 24.9607 161.295 34.2582C150.512 47.7779 142.168 56.0944 130.443 64.9653C128.347 66.5433 126.507 68.036 126.421 68.2919C126.336 68.5478 126.935 68.6331 128.047 68.4624C131.385 68.036 141.184 59.7622 154.62 46.1571C172.035 28.4153 178.967 17.3266 174.945 13.5736C173.618 12.3367 169.767 11.9955 167.457 12.8912L167.457 12.8911Z" fill="#F7B219"/>
<path d="M197.281 24.8219C196.895 25.1205 196.04 26.3573 195.269 27.6366C191.204 34.6311 182.047 44.2271 168.183 56.0407C163.562 60.0071 159.797 63.4615 159.882 63.6749C159.968 63.9308 160.824 64.1014 161.722 64.0587C165.744 63.8028 186.455 47.5964 198.607 35.2281C203.185 30.5367 203.442 29.769 201.174 26.7836C199.591 24.7366 198.222 24.0967 197.28 24.8218L197.281 24.8219Z" fill="#F7B219"/>
<path d="M150.768 72.5031C147.644 74.0811 141.012 80.4358 137.803 84.8713C133.01 91.5672 131.855 98.1778 134.893 101.376C137.589 104.277 142.681 103.935 149.442 100.396C155.603 97.1542 163.091 91.0127 165.702 87.1317C168.44 82.9521 166.857 82.8668 162.45 86.9612C156.93 92.1215 146.318 98.3483 142.381 98.8175C140.841 98.988 140.499 98.8601 140.071 98.0498C138.145 94.4673 143.579 85.3831 152.052 78.0902C156.245 74.5077 156.844 73.1856 154.962 71.8634C153.72 71.0104 153.935 70.9678 150.768 72.5031Z" fill="#F7B219"/>
<path d="M88.8093 70.5098C77.0421 73.154 64.5047 86.6737 64.2481 96.9945C64.1623 99.7668 64.7614 100.577 66.901 100.577C70.0675 100.577 79.8235 96.5681 87.3544 92.1753C88.3386 91.5781 89.1516 91.1944 89.1516 91.3222C89.1516 91.4501 88.2958 93.1561 87.2261 95.1179C85.0012 99.2975 84.4021 102.155 85.5145 103.264C85.8997 103.648 86.3704 103.989 86.5842 103.989C86.7983 103.989 87.654 102.965 88.467 101.729C89.3228 100.534 93.0883 95.8004 96.8537 91.237C100.619 86.6737 103.7 82.622 103.7 82.2382C103.7 81.8116 103.315 81.0013 102.844 80.4043C102.373 79.8072 101.988 78.7411 101.988 78.0159C101.988 75.329 100.063 72.173 97.6665 70.9362C95.9549 70.0406 91.8043 69.8274 88.809 70.5098H88.8093ZM96.982 76.7792C97.8379 77.7601 98.1373 78.5705 98.0517 79.4661C97.9234 80.6176 97.1959 81.2147 91.291 85.1383C80.7647 92.0901 72.0783 96.5681 71.3937 95.4593C71.0085 94.8195 72.6773 91.4076 74.8169 88.4223C78.026 83.9016 83.5031 79.6366 90.1355 76.4378C93.8155 74.6465 95.2275 74.7319 96.9817 76.7791L96.982 76.7792Z" fill="#F7B219"/>
<path d="M103.486 104.245C83.2891 121.134 56.9734 129.237 28.6039 127.446C20.6877 126.934 11.2311 125.484 4.89828 123.821C2.67334 123.224 0.7905 122.797 0.705012 122.883C0.405453 123.181 5.4974 125.186 9.34843 126.294C13.5418 127.489 20.3027 128.811 26.6784 129.664C33.2251 130.559 55.5186 130.389 62.4077 129.45C78.4966 127.19 91.633 122.882 101.175 116.741C105.411 114.011 110.375 109.704 111.145 108.083C112.258 105.738 112.044 104.501 110.161 102.667C109.262 101.729 108.236 101.004 107.936 101.046C107.594 101.046 105.625 102.496 103.486 104.245V104.245Z" fill="#F7B219"/>
<path d="M121.501 110.429C119.575 111.922 120.217 114.225 124.068 119.598C129.288 126.977 137.804 132.009 148.501 134.099C153.679 135.122 164.676 135.122 171.522 134.099C185.557 131.966 203.229 126.124 217.564 118.873C224.881 115.163 232.497 110.258 231.898 109.661C231.813 109.576 228.09 111.324 223.597 113.542C206.224 122.072 193.345 126.678 180.508 128.981C174.56 130.047 162.707 130.047 157.444 128.981C149.956 127.488 142.468 124.29 136.434 119.982C134.894 118.873 131.556 116.058 128.989 113.755C126.379 111.41 123.94 109.533 123.469 109.533C123.041 109.533 122.143 109.917 121.501 110.429H121.501Z" fill="#F7B219"/>
<path d="M185.821 92.0108H183.791V103.232H182.328V92.0108H180.321V90.5288H185.821V92.0108Z" fill="#F7B219"/>
<path d="M188.818 92.0108V95.7042H191.579V97.1627H188.818V101.773H191.933V103.232H187.354V90.5288H191.933V92.0108H188.818Z" fill="#F7B219"/>
<path d="M196.701 91.9873L195.662 97.5626H197.834L196.795 91.9873H196.701ZM198.872 103.232L198.117 99.0212H195.403L194.6 103.232H193.113L195.497 90.5288H197.999L200.383 103.232H198.872Z" fill="#F7B219"/>
<path d="M206.472 92.0108H204.442V103.232H202.979V92.0108H200.973V90.5288H206.472V92.0108Z" fill="#F7B219"/>
<path d="M213.789 92.7402V96.4334C213.789 97.0294 213.573 97.543 213.14 97.9743C212.708 98.4055 212.184 98.6212 211.571 98.6212H209.47V103.232H208.007V90.5288H211.571C212.184 90.5288 212.708 90.7444 213.14 91.1757C213.573 91.607 213.789 92.1284 213.789 92.7402ZM209.47 97.1627H211.571C211.775 97.1627 211.948 97.0921 212.09 96.951C212.232 96.8098 212.302 96.6373 212.302 96.4334V92.7402C212.302 92.5363 212.232 92.3637 212.09 92.2225C211.948 92.0814 211.775 92.0108 211.571 92.0108H209.47V97.1627Z" fill="#F7B219"/>
<path d="M221.271 90.5288V95.7042H222.475C222.742 95.7042 222.97 95.6023 223.159 95.3984C223.348 95.1945 223.442 94.9593 223.442 94.6927V92.8578C223.442 92.2147 223.667 91.6658 224.115 91.211C224.563 90.7562 225.102 90.5288 225.732 90.5288H225.826V92.0108H225.732C225.496 92.0108 225.303 92.0931 225.154 92.2578C225.004 92.4225 224.929 92.6224 224.929 92.8578V94.7397C224.929 95.2102 224.799 95.6375 224.54 96.0218C224.28 96.406 223.93 96.7 223.489 96.9039L225.826 103.232H224.268L222.003 97.1627H221.271V103.232H219.808V90.5288H221.271Z" fill="#F7B219"/>
<path d="M230.24 103.232H228.753L229.626 99.0446H228.682L226.416 90.5288H227.927L229.791 97.5626H229.933L231.349 90.5288H232.836L230.24 103.232Z" fill="#F7B219"/>
<path d="M235.385 90.5288L237.131 95.7042H237.438L239.185 90.5288H240.766L238.618 96.4334L241.049 103.232H239.492L237.462 97.1627H237.108L235.102 103.232H233.544L235.951 96.4334L233.803 90.5288H235.385Z" fill="#F7B219"/>
<path d="M247.045 90.5288H248.508V103.232H247.045V97.1627H243.811V103.232H242.348V90.5288H243.811V95.7042H247.045V90.5288Z" fill="#F7B219"/>
<path d="M257.194 103.232H255.731V98.48L256.108 92.0108L252.426 103.232H250.396V90.5288H251.86V95.9865L251.482 101.773L255.164 90.5288H257.194V103.232Z" fill="#F7B219"/>
</svg>
