<svg width="234" height="503" viewBox="0 0 234 503" fill="none" xmlns="http://www.w3.org/2000/svg">
<g clip-path="url(#clip0_201_174)">
<path d="M219.037 449.435C215.902 462.637 127.326 459.187 127.326 459.187L127.603 455.751C134.188 456.029 136.44 437.958 135.861 434.521C135.281 431.084 132.16 410.996 132.16 407.201C132.16 403.406 127.892 403.539 127.892 403.539V269.234C126.904 269.234 125.614 269.234 124.191 269.234C125.416 269.234 126.654 269.234 127.892 269.234C119.015 268.584 110.178 267.464 101.418 265.877C92.7421 264.421 84.2251 262.128 75.9845 259.03C72.0126 257.575 68.2891 255.507 64.9471 252.9C61.6883 250.247 58.8192 247.142 56.4253 243.678C53.9931 240.188 51.919 236.458 50.2348 232.546C49.3567 230.6 48.584 228.614 47.9167 226.588C47.2449 224.611 47.6532 226.456 47.2449 224.611L36.1152 215.575C36.866 218.057 39.8822 227.159 40.8042 229.362C41.7262 231.564 42.7272 233.634 43.8204 235.704C46.0014 239.869 48.5916 243.803 51.5519 247.447C54.5267 251.145 58.0132 254.393 61.9045 257.093C63.8571 258.445 65.9294 259.614 68.095 260.583C70.2143 261.513 72.3871 262.315 74.6016 262.984C82.6924 265.336 90.9816 266.931 99.3635 267.748L99.9298 403.804C96.5053 404.388 94.5165 429.638 96.2419 440.253C97.9673 450.868 100.773 452.593 108.188 456.029C115.604 459.466 117.013 470.121 117.013 470.121V457.184L122.993 456.892V470.16C169.421 470.731 231.8 460.687 224.411 447.498C217.022 434.309 173.175 432.557 173.175 432.557C173.175 432.557 222.172 436.233 219.037 449.435ZM125.047 405.529C118.778 409.257 103.394 405.529 103.394 405.529V268.146C105.501 268.331 107.595 268.504 109.703 268.65L116.499 398.364L116.776 299.791C116.776 298.686 117.212 297.627 117.987 296.845C118.763 296.064 119.815 295.625 120.912 295.625C122.008 295.625 123.06 296.064 123.836 296.845C124.612 297.627 125.047 298.686 125.047 299.791V405.529Z" fill="#F7DEC9"/>
<path d="M63.0762 475.017C209.422 490.063 232.419 456.321 232.419 456.321C232.224 453.518 231.236 450.829 229.574 448.573C228.151 459.479 216.942 469.033 166.062 474.393C131.824 477.769 97.3517 477.977 63.0762 475.017Z" fill="#F7DEC9"/>
<path d="M0.869301 479.82C0.579534 479.515 0.276596 479.197 0 478.878C0.264917 479.215 0.555572 479.53 0.869301 479.82Z" fill="#F7DEC9"/>
<path d="M232.419 460.05V470.121C232.419 470.121 239.005 496.207 127.603 499.073C29.8327 501.554 5.38687 484.133 0.869141 479.82C20.0728 500.665 61.8256 503.916 128.907 502.802C198.609 501.66 217.575 490.103 227.006 485.552C238.399 480.139 232.419 460.05 232.419 460.05Z" fill="#F7DEC9"/>
<path d="M9.97043 458.909C33.323 472.39 107.029 470.121 107.029 470.121C104.395 468.131 105.567 458.909 105.567 458.909C105.567 458.909 63.2349 458.325 58.9542 460.05C54.6736 461.775 43.0039 463.5 42.1741 463.725C41.3443 463.951 -3.95156 460.342 10.8266 447.153C25.6047 433.964 60.8772 431.655 60.8772 431.655C45.4932 431.363 -13.3822 445.415 9.97043 458.909Z" fill="#F7DEC9"/>
<path d="M1.47461 450.735C1.70561 450.03 1.87744 449.307 1.98829 448.573C1.70759 449.263 1.53432 449.992 1.47461 450.735Z" fill="#F7DEC9"/>
<path d="M10.5371 465.794C25.0254 474.393 48.4175 473.251 48.4175 473.251C23.3922 470.266 18.4266 470.531 7.42867 461.814C1.89676 457.435 1.25137 453.189 1.47528 450.735C0.118645 455.18 -2.04144 458.324 10.5371 465.794Z" fill="#F7DEC9"/>
<path d="M69.0827 87.9443C66.8436 87.4401 64.4859 89.4702 63.8142 92.4821C63.1425 95.4941 64.3937 98.3469 66.6197 98.8643C68.8456 99.3818 71.2033 97.3384 71.8882 94.3265C72.5731 91.3145 71.3086 88.4617 69.0827 87.9443Z" fill="#F7DEC9"/>
<path d="M169.473 235.093C173.754 202.373 164.034 139.254 184.844 141.257L184.594 124.088C184.594 123.491 184.594 122.88 184.594 122.27C184.752 119.908 184.791 111.549 177.705 110.58C170.619 109.612 166.036 114.004 166.036 122.894C166.036 131.784 167.353 232.944 166.036 237.097C163.401 245.536 158.91 262.068 144.672 266.938C144.698 266.938 165.206 267.8 169.473 235.093Z" fill="#F7DEC9"/>
<path d="M171.753 29.3499C171.753 29.3499 170.607 45.4181 164.772 42.844C158.937 40.2699 145.832 34.8033 134.162 33.9408C134.162 33.9408 144.699 36.2363 150.955 39.1156C157.212 41.9948 179.445 58.0499 182.013 60.9159L184.845 47.435C184.845 47.435 171.753 39.6861 171.753 29.3499Z" fill="#F7DEC9"/>
<path d="M191.128 35.0954C193.683 38.8239 198.267 50.686 190.562 65.9184C190.562 65.9184 207.5 75.7106 214.902 85.755C217.555 78.8577 218.298 71.3635 217.049 64.0741C215.047 51.4423 199.663 40.5488 199.663 40.5488C199.663 40.5488 213.914 55.4627 213.335 64.4323C212.755 73.4019 202.231 68.1608 199.386 62.986C196.541 57.8113 201.665 40.6151 190.838 32.0038C180.012 23.3925 159.504 11.9417 159.504 11.9417C159.504 11.9417 188.56 31.3669 191.128 35.0954Z" fill="#F7DEC9"/>
<path d="M120.135 248.031C150.666 247.832 159.504 231.644 159.504 231.644V136.959C155.645 159.343 147.966 185.164 140.709 188.707C133.451 192.25 131.739 186.305 112.509 176.845C93.2789 167.384 86.9304 175.69 86.9304 175.69C82.979 181.781 82.5971 195.049 96.2951 198.937C109.993 202.825 113.418 188.707 113.418 188.707C113.418 188.707 129.948 193.656 141.077 203.528C139.681 206.062 138.206 208.57 136.599 210.998C135.282 213.161 133.794 215.218 132.332 217.301C131.607 218.336 130.883 219.384 130.093 220.339L128.933 221.812L127.695 223.205C120.961 230.753 112.04 235.975 102.196 238.132C92.237 240.289 81.9063 239.966 72.0996 237.19C81.8676 240.402 92.2644 241.171 102.393 239.433C112.712 237.608 122.202 232.568 129.526 225.023L130.843 223.603L132.16 222.117C133.03 221.122 133.82 220.114 134.61 219.079C136.191 217.049 137.785 215.005 139.247 212.869C140.709 210.733 142.315 208.451 143.738 206.168C148.717 211.476 151.917 217.924 150.705 225.58C147.663 245.377 127.761 247.819 120.135 248.031Z" fill="#F7DEC9"/>
<path d="M120.135 248.03C119.187 248.03 118.212 248.03 117.211 248.03C117.224 248.004 118.317 248.123 120.135 248.03Z" fill="#F7DEC9"/>
<path d="M130.026 23.3264C133.872 24.6533 136.612 20.3145 140.708 16.0154C144.805 11.7164 145.977 5.89146 156.725 10.4161C156.725 10.4161 149.981 3.78176 138.403 8.69114C126.826 13.6005 126.18 22.0394 130.026 23.3264Z" fill="#F7DEC9"/>
<path d="M36.2332 122.071C39.9739 122.204 44.0569 122.39 48.3113 122.615C49.3212 122.667 50.3203 122.385 51.1569 121.812C51.9936 121.24 52.6222 120.409 52.9475 119.444L54.6861 114.243L54.5808 113.486C47.8898 113.141 41.6203 112.903 36.5625 112.743C35.4159 112.818 34.3377 113.32 33.5371 114.15C32.7365 114.98 32.2705 116.081 32.2295 117.237C32.1885 118.394 32.5754 119.525 33.3151 120.411C34.0549 121.297 35.0948 121.874 36.2332 122.031V122.071Z" fill="#F7DEC9"/>
<path d="M46.4688 87.4407L53.0544 87.706C53.4848 87.7253 53.9145 87.6538 54.316 87.4962C54.7174 87.3385 55.0818 87.0982 55.3857 86.7905L55.7282 86.4323C56.1616 86.0077 56.461 85.4636 56.5886 84.8683C56.7163 84.273 56.6666 83.653 56.4457 83.086C56.2248 82.5191 55.8426 82.0305 55.347 81.6816C54.8515 81.3327 54.2647 81.139 53.6603 81.1248L46.7849 80.939C46.1383 80.9201 45.5022 81.1075 44.9676 81.4745C44.4331 81.8415 44.0272 82.3692 43.8082 82.9824L43.7028 83.3141C43.5384 83.7706 43.4835 84.2597 43.5426 84.7416C43.6017 85.2235 43.7731 85.6845 44.0428 86.0869C44.3125 86.4893 44.6729 86.8217 45.0946 87.057C45.5162 87.2923 45.9871 87.4238 46.4688 87.4407Z" fill="#F7DEC9"/>
<path d="M28.5298 137.609C33.2583 137.768 38.6453 138.007 44.2563 138.312C44.927 138.351 45.5917 138.166 46.1484 137.788C46.7052 137.409 47.1232 136.857 47.3384 136.216V136.109C47.4897 135.656 47.5345 135.173 47.4693 134.7C47.404 134.226 47.2306 133.774 46.9625 133.379C46.6943 132.984 46.3389 132.657 45.9242 132.424C45.5095 132.191 45.0467 132.058 44.5724 132.036C38.5663 131.757 33.0607 131.558 28.7669 131.426C27.953 131.399 27.162 131.7 26.568 132.261C25.9739 132.822 25.6254 133.598 25.5992 134.418C25.573 135.238 25.8713 136.035 26.4283 136.633C26.9853 137.231 27.7554 137.582 28.5694 137.609H28.5298Z" fill="#F7DEC9"/>
<path d="M40.8316 103.35C43.5976 103.442 46.5743 103.575 49.6827 103.721C50.1311 103.742 50.5786 103.664 50.9938 103.492C51.4089 103.321 51.7816 103.059 52.0855 102.726C52.3895 102.393 52.6172 101.998 52.7528 101.567C52.8884 101.136 52.9284 100.68 52.8701 100.231V99.8333C52.7663 99.117 52.4172 98.4597 51.8833 97.9751C51.3494 97.4905 50.6642 97.2091 49.9461 97.1796C46.7455 97.0469 43.7952 96.954 41.2004 96.8744C40.5529 96.8407 39.9118 97.0171 39.3712 97.3778C38.8307 97.7384 38.4192 98.2643 38.1974 98.878L38.0788 99.2097C37.9121 99.6658 37.855 100.155 37.9121 100.638C37.9693 101.121 38.1391 101.583 38.4076 101.987C38.6761 102.39 39.0358 102.724 39.4571 102.961C39.8784 103.198 40.3495 103.331 40.8316 103.35Z" fill="#F7DEC9"/>
<path d="M64.092 38.1343C68.7809 38.3068 74.0363 38.5589 79.476 38.8509C80.1396 38.8891 80.7976 38.7093 81.351 38.3384C81.9045 37.9675 82.3234 37.4256 82.5449 36.7942L83.1112 35.1887C83.2733 34.7226 83.3221 34.2241 83.2535 33.735C83.185 33.246 83.0012 32.7806 82.7175 32.3778C82.4337 31.975 82.0583 31.6466 81.6227 31.42C81.187 31.1934 80.7038 31.0752 80.2136 31.0754H64.5398C63.9019 31.0779 63.2808 31.2813 62.7636 31.6573C62.2463 32.0333 61.8588 32.5629 61.6553 33.1719L61.326 34.0609C61.1747 34.5143 61.1299 34.9969 61.1951 35.4708C61.2603 35.9446 61.4338 36.3967 61.7019 36.7916C61.97 37.1864 62.3254 37.5132 62.7402 37.7462C63.1549 37.9792 63.6176 38.1121 64.092 38.1343Z" fill="#F7DEC9"/>
<path d="M22.0218 155.574L38.1039 156.609C38.7768 156.651 39.4445 156.468 40.0039 156.089C40.5634 155.71 40.9834 155.156 41.1991 154.513L42.1343 151.713C42.2885 151.26 42.3355 150.776 42.2715 150.301C42.2075 149.826 42.0343 149.373 41.7656 148.977C41.497 148.582 41.1404 148.255 40.7242 148.023C40.308 147.79 39.8437 147.659 39.3683 147.64C33.2306 147.348 27.6064 147.135 23.1546 147.003C22.5093 146.983 21.8744 147.17 21.3416 147.537C20.8089 147.904 20.4059 148.433 20.191 149.046L19.3217 151.448C19.1615 151.899 19.1077 152.382 19.1645 152.858C19.2214 153.334 19.3873 153.79 19.6492 154.19C19.911 154.59 20.2617 154.924 20.6735 155.164C21.0853 155.404 21.5469 155.545 22.0218 155.574Z" fill="#F7DEC9"/>
<path d="M58.0326 55.0649C62.7347 55.2374 68.0427 55.4895 73.5351 55.7814C74.1972 55.8206 74.854 55.6427 75.4072 55.2743C75.9604 54.9059 76.3803 54.3669 76.604 53.738L77.1177 52.2785C77.276 51.823 77.3266 51.3366 77.2657 50.858C77.2048 50.3793 77.034 49.9215 76.7668 49.521C76.4996 49.1205 76.1434 48.7882 75.7265 48.5505C75.3095 48.3129 74.8434 48.1764 74.3649 48.152C68.5433 47.8733 63.1562 47.6743 58.7307 47.5283C58.0854 47.5081 57.4505 47.6952 56.9177 48.0626C56.385 48.4299 55.982 48.9584 55.7672 49.5717L55.2798 50.8986C55.1048 51.356 55.0412 51.8492 55.0944 52.3365C55.1477 52.8239 55.3163 53.2912 55.5859 53.6994C55.8556 54.1076 56.2185 54.4446 56.6443 54.6822C57.07 54.9198 57.5461 55.051 58.0326 55.0649Z" fill="#F7DEC9"/>
<path d="M52.1446 71.5447C57.4131 71.7305 63.3665 72.0091 69.5438 72.3674L70.3472 71.5315L71.1243 69.2095C71.2811 68.7639 71.3343 68.288 71.2799 67.8184C71.2255 67.3488 71.0649 66.898 70.8105 66.5008C70.5561 66.1035 70.2146 65.7703 69.8123 65.5268C69.4101 65.2833 68.9577 65.136 68.4901 65.0962C62.6026 64.8043 57.1628 64.6053 52.6846 64.4726C52.0409 64.4514 51.4072 64.6366 50.8747 65.0014C50.3421 65.3662 49.9382 65.8919 49.7211 66.5027L49.3918 67.4049C49.2281 67.8611 49.1732 68.3497 49.2317 68.8312C49.2901 69.3128 49.4602 69.7737 49.7282 70.1767C49.9962 70.5797 50.3546 70.9135 50.7743 71.1512C51.1941 71.3889 51.6635 71.5237 52.1446 71.5447Z" fill="#F7DEC9"/>
<path d="M82.4914 100.059L82.0436 100.457C81.5503 100.861 81.1879 101.403 81.0031 102.016C80.8182 102.628 80.8193 103.282 81.0062 103.894C81.1931 104.506 81.5572 105.048 82.0518 105.449C82.5465 105.851 83.149 106.095 83.7822 106.149C88.2867 106.6 92.3961 107.105 95.8207 107.662C102.762 108.777 108.676 111.085 114.932 113.54L115.367 113.712C120.859 115.862 135.124 123.929 150.455 133.363C150.858 133.612 151.311 133.768 151.782 133.818C152.252 133.869 152.728 133.813 153.174 133.656C153.62 133.498 154.026 133.243 154.363 132.908C154.699 132.572 154.957 132.166 155.118 131.718L155.328 131.134C155.577 130.442 155.582 129.684 155.342 128.988C155.102 128.293 154.632 127.701 154.011 127.313C138.206 117.481 123.085 108.816 117.645 106.693L117.224 106.481C111.205 104.119 106.002 102.089 100.101 101.174C95.7548 100.484 90.5258 99.8468 84.9017 99.3691C84.4746 99.3164 84.0413 99.3503 83.6274 99.4688C83.2134 99.5873 82.8272 99.788 82.4914 100.059Z" fill="#F7DEC9"/>
<path d="M54.305 150.904L53.0801 154.672C52.935 155.123 52.8902 155.6 52.9489 156.07C53.0076 156.54 53.1685 156.991 53.42 157.392C53.6715 157.792 54.0075 158.132 54.404 158.386C54.8006 158.641 55.248 158.804 55.7143 158.865L77.9342 161.519C88.0053 162.718 97.8024 165.625 106.911 170.117L132.99 183.001C133.394 183.199 133.834 183.309 134.283 183.325C134.732 183.34 135.179 183.26 135.596 183.09C136.012 182.919 136.388 182.663 136.699 182.337C137.01 182.01 137.25 181.622 137.402 181.196L137.534 180.811C137.783 180.119 137.788 179.361 137.548 178.666C137.308 177.97 136.838 177.378 136.217 176.99C120.675 167.344 105.923 158.931 100.655 156.835L100.22 156.663C94.1875 154.301 88.9849 152.271 83.0973 151.355C76.1956 150.254 67.0811 149.378 57.7164 148.701C56.9828 148.616 56.2424 148.788 55.6207 149.19C54.9989 149.591 54.5341 150.197 54.305 150.904Z" fill="#F7DEC9"/>
<path d="M59.3763 135.34C59.2277 135.802 59.1848 136.292 59.2507 136.773C59.3167 137.255 59.4897 137.715 59.757 138.119C60.0242 138.524 60.3787 138.862 60.7941 139.109C61.2094 139.356 61.6748 139.505 62.1554 139.546C70.6113 140.209 78.5404 141.019 84.4279 141.961C91.3692 143.075 97.2831 145.384 103.539 147.839L103.974 148.011C109.387 150.068 123.283 157.896 138.298 167.184C138.702 167.433 139.155 167.589 139.625 167.639C140.095 167.69 140.571 167.634 141.017 167.477C141.464 167.319 141.87 167.064 142.206 166.729C142.542 166.393 142.8 165.987 142.961 165.539L143.079 165.22C143.331 164.528 143.337 163.77 143.097 163.073C142.857 162.377 142.385 161.786 141.762 161.399C126.26 151.779 111.574 143.394 106.2 141.297L105.765 141.125C99.7461 138.776 94.5303 136.733 88.6427 135.817C81.583 134.689 72.2051 133.814 62.6164 133.164C61.9139 133.117 61.2158 133.305 60.63 133.698C60.0443 134.091 59.6036 134.668 59.3763 135.34Z" fill="#F7DEC9"/>
<path d="M88.0236 90.0675C93.0945 90.5584 97.7308 91.1024 101.524 91.7128C108.452 92.8274 114.366 95.1361 120.622 97.5908L121.057 97.7633C126.563 99.9128 140.814 107.98 156.145 117.414C156.549 117.663 157.004 117.818 157.475 117.869C157.946 117.92 158.422 117.864 158.87 117.707C159.317 117.55 159.724 117.294 160.062 116.959C160.399 116.624 160.658 116.217 160.821 115.769L161.018 115.198C161.267 114.506 161.272 113.748 161.032 113.052C160.793 112.357 160.323 111.765 159.701 111.377C143.896 101.545 128.775 92.8804 123.322 90.7574L122.888 90.5849C116.855 88.2231 111.653 86.193 105.765 85.2775C100.879 84.4947 94.8989 83.8312 88.4977 83.2739C87.9757 83.2324 87.4514 83.3205 86.971 83.5306C86.4906 83.7407 86.0688 84.0663 85.7424 84.4789C85.416 84.8915 85.1952 85.3785 85.0992 85.8971C85.0032 86.4157 85.0349 86.9502 85.1917 87.4536L85.3103 87.8649C85.5073 88.4543 85.8673 88.9747 86.348 89.3649C86.8287 89.7551 87.41 89.9989 88.0236 90.0675Z" fill="#F7DEC9"/>
<path d="M65.4353 116.591L64.4343 119.67C64.2859 120.128 64.242 120.615 64.3057 121.092C64.3694 121.57 64.5392 122.028 64.8023 122.431C65.0655 122.833 65.4154 123.171 65.826 123.419C66.2365 123.667 66.6973 123.819 67.1739 123.863C75.8669 124.539 84.0331 125.362 90.0787 126.331C97.0068 127.445 102.921 129.754 109.19 132.209L109.625 132.381C115.012 134.491 128.868 142.319 143.87 151.528C144.273 151.777 144.727 151.932 145.197 151.983C145.667 152.033 146.143 151.978 146.589 151.82C147.035 151.663 147.441 151.407 147.778 151.072C148.114 150.737 148.372 150.33 148.533 149.882L149.573 147.003C149.825 146.309 149.832 145.548 149.592 144.85C149.352 144.151 148.88 143.557 148.256 143.169C132.503 133.336 117.383 124.725 111.956 122.562L111.521 122.39C105.489 120.028 100.286 117.998 94.3989 117.082C87.4313 115.968 78.2114 115.092 68.7545 114.429C68.0404 114.36 67.3242 114.537 66.7219 114.929C66.1196 115.322 65.6663 115.907 65.4353 116.591Z" fill="#F7DEC9"/>
<path d="M97.0842 30.9422C96.4277 30.9634 95.794 31.1892 95.2703 31.5884C94.7466 31.9877 94.3587 32.5407 94.1601 33.1714L93.2777 35.7587C93.1219 36.2234 93.0734 36.7177 93.1358 37.204C93.1982 37.6904 93.37 38.156 93.638 38.5654C93.9059 38.9748 94.2631 39.3173 94.6823 39.5667C95.1014 39.8161 95.5715 39.9659 96.0568 40.0047C104.605 40.6681 112.653 41.4908 118.606 42.4461C125.534 43.5474 131.448 45.8694 137.717 48.3241L138.152 48.4834C143.71 50.6594 158.212 58.886 173.714 68.3863C174.119 68.6353 174.573 68.7907 175.044 68.8413C175.515 68.892 175.992 68.8366 176.439 68.6792C176.886 68.5218 177.293 68.2662 177.631 67.9311C177.968 67.5959 178.228 67.1894 178.39 66.741L178.825 65.5203C179.007 64.9856 179.045 64.412 178.936 63.8575C178.828 63.303 178.576 62.7872 178.206 62.3623C174.491 58.1562 162.005 46.3073 134.161 37.3908C114.865 31.2076 101.997 30.7963 97.0842 30.9422Z" fill="#F7DEC9"/>
<path d="M82.2143 68.2405L80.6074 72.9773V73.0835C90.6307 73.8133 100.285 74.7288 107.174 75.8301C114.062 76.9314 120.016 79.2534 126.272 81.7081L126.72 81.8806C132.212 84.0301 146.477 92.0974 161.808 101.531C162.211 101.78 162.665 101.936 163.135 101.986C163.605 102.037 164.081 101.982 164.527 101.824C164.974 101.666 165.379 101.411 165.716 101.076C166.052 100.741 166.31 100.334 166.471 99.8861L166.853 98.8379C167.104 98.1456 167.11 97.3871 166.87 96.6907C166.63 95.9944 166.159 95.403 165.535 95.0165C149.73 85.1314 134.465 76.4405 128.999 74.2909L128.538 74.1052C122.518 71.7566 117.329 69.7133 111.415 68.7977C104.355 67.6699 95.0036 66.7942 85.4413 66.144C84.7507 66.0949 84.0629 66.2726 83.4811 66.6506C82.8992 67.0286 82.4548 67.5864 82.2143 68.2405Z" fill="#F7DEC9"/>
<path d="M87.9708 51.3102L87.523 52.6371C87.3647 53.1007 87.3138 53.5946 87.3744 54.0811C87.4349 54.5676 87.6052 55.0336 87.8722 55.4435C88.1392 55.8534 88.4959 56.1962 88.9148 56.4458C89.3337 56.6953 89.8038 56.8449 90.289 56.883C98.8766 57.5465 106.937 58.3691 112.917 59.3245C119.832 60.4257 125.746 62.7478 132.002 65.1892L132.45 65.3749C137.969 67.5245 152.325 75.6581 167.709 85.1319C168.114 85.3809 168.568 85.5363 169.039 85.587C169.51 85.6376 169.987 85.5822 170.434 85.4248C170.881 85.2674 171.289 85.0119 171.626 84.6767C171.963 84.3415 172.223 83.935 172.385 83.4866L172.899 82.0536C173.145 81.3608 173.149 80.6041 172.909 79.9089C172.67 79.2138 172.201 78.6222 171.582 78.2322C155.605 68.2808 140.234 59.4704 134.702 57.3209L134.268 57.1484C128.248 54.7866 123.033 52.7432 117.145 51.841C110.112 50.7131 100.786 49.8374 91.2373 49.1872C90.537 49.1309 89.8378 49.3083 89.2475 49.6919C88.6572 50.0756 88.2086 50.6443 87.9708 51.3102Z" fill="#F7DEC9"/>
<path d="M182.579 107.755C182.521 107.978 182.529 108.214 182.602 108.433C182.674 108.652 182.808 108.845 182.987 108.989C185.819 111.269 187.698 114.536 188.256 118.144C188.279 118.299 188.335 118.448 188.419 118.581C188.503 118.713 188.613 118.827 188.743 118.914C192.892 121.753 196.738 124.46 200.044 126.875C200.193 126.985 200.366 127.057 200.549 127.087C200.731 127.117 200.918 127.102 201.094 127.045C201.27 126.988 201.43 126.89 201.561 126.759C201.692 126.628 201.791 126.468 201.849 126.291L203.39 121.541C203.47 121.307 203.477 121.054 203.408 120.816C203.34 120.578 203.2 120.368 203.008 120.214C198.2 116.459 191.615 111.841 184.305 106.945C184.142 106.854 183.961 106.802 183.775 106.795C183.589 106.788 183.404 106.825 183.236 106.905C183.067 106.984 182.92 107.102 182.806 107.25C182.691 107.398 182.614 107.571 182.579 107.755Z" fill="#F7DEC9"/>
<path d="M196.62 142.572L198.016 138.299C198.097 138.066 198.103 137.812 198.035 137.575C197.966 137.337 197.826 137.126 197.634 136.972C195.434 135.248 192.84 133.324 189.968 131.28C189.795 131.158 189.593 131.085 189.382 131.07C189.172 131.054 188.961 131.096 188.772 131.191C188.583 131.286 188.423 131.431 188.309 131.61C188.195 131.79 188.131 131.996 188.124 132.209C188.124 133.921 188.124 135.725 188.059 137.596C188.06 137.787 188.107 137.975 188.197 138.144C188.286 138.313 188.415 138.457 188.572 138.565C190.811 140.144 192.906 141.67 194.815 143.103C194.961 143.213 195.131 143.288 195.31 143.321C195.49 143.354 195.675 143.345 195.85 143.293C196.025 143.242 196.186 143.15 196.32 143.024C196.453 142.899 196.556 142.744 196.62 142.572Z" fill="#F7DEC9"/>
<path d="M188.164 152.416C188.164 154.34 188.164 156.171 188.269 157.857C188.276 158.035 188.322 158.21 188.404 158.368C188.486 158.526 188.602 158.664 188.743 158.772L189.546 159.369C189.696 159.479 189.869 159.552 190.051 159.581C190.233 159.611 190.42 159.597 190.596 159.54C190.772 159.483 190.932 159.385 191.063 159.254C191.195 159.123 191.293 158.962 191.351 158.785L192.734 154.526C192.823 154.293 192.834 154.037 192.765 153.798C192.696 153.558 192.551 153.348 192.352 153.199C191.628 152.629 190.864 152.032 190.047 151.421C189.869 151.284 189.657 151.201 189.434 151.182C189.211 151.163 188.988 151.208 188.79 151.313C188.592 151.418 188.428 151.577 188.317 151.773C188.206 151.968 188.153 152.191 188.164 152.416Z" fill="#F7DEC9"/>
<path d="M209.963 92.3763C210.239 92.5799 210.559 92.7146 210.896 92.7692C211.234 92.8239 211.58 92.797 211.905 92.6908C212.23 92.5846 212.526 92.402 212.768 92.1582C213.009 91.9144 213.19 91.6162 213.295 91.2883C213.414 90.9363 213.439 90.5593 213.37 90.1942C213.301 89.8291 213.139 89.4883 212.9 89.2051C207.704 83.0582 201.552 77.8018 194.684 73.641C194.393 73.4704 194.067 73.3694 193.731 73.3457C193.395 73.3221 193.058 73.3765 192.747 73.5046C192.435 73.6328 192.156 73.8314 191.933 74.0851C191.709 74.3388 191.547 74.6408 191.457 74.9679L190.799 77.4226C190.676 77.8702 190.698 78.3453 190.862 78.7794C191.025 79.2135 191.321 79.584 191.707 79.8374C198.451 84.2426 204.76 88.5682 209.963 92.3763Z" fill="#F7DEC9"/>
<path d="M187.031 91.554L186.109 95.0038C185.987 95.4514 186.009 95.9266 186.172 96.3607C186.336 96.7947 186.632 97.1653 187.018 97.4187C193.459 101.665 199.491 105.791 204.47 109.453C204.746 109.66 205.067 109.797 205.406 109.853C205.746 109.909 206.093 109.883 206.42 109.777C206.748 109.67 207.045 109.487 207.288 109.241C207.53 108.996 207.711 108.695 207.815 108.365L208.829 105.26C208.971 104.827 208.975 104.361 208.84 103.925C208.705 103.49 208.439 103.108 208.079 102.832C203.39 99.2233 197.186 94.8712 190.337 90.2935C190.049 90.1034 189.72 89.9846 189.377 89.9469C189.035 89.9092 188.688 89.9535 188.366 90.0764C188.043 90.1993 187.754 90.3972 187.523 90.654C187.291 90.9108 187.122 91.2192 187.031 91.554Z" fill="#F7DEC9"/>
<path d="M144.765 264.165C146.72 263.33 148.562 262.247 150.244 260.941C151.95 259.658 153.49 258.164 154.827 256.496C157.502 253.155 159.51 249.326 160.741 245.217C161.375 243.175 161.847 241.085 162.151 238.968C162.23 238.437 162.282 237.893 162.335 237.349C162.388 236.805 162.335 236.261 162.335 235.744L162.414 232.625L162.704 220.153L163.178 195.234C163.415 178.609 163.626 161.983 163.678 145.358V120.426V117.308C163.631 116.316 163.733 115.323 163.981 114.362C164.491 112.431 165.668 110.747 167.3 109.612C170.752 107.351 174.882 106.383 178.97 106.879C174.826 106.092 170.539 106.847 166.905 109.002C165.03 110.162 163.628 111.96 162.954 114.07C162.62 115.107 162.451 116.191 162.453 117.281L162.322 120.4L161.531 145.318C161.044 161.93 160.715 178.49 160.425 195.168L160.096 220.1L159.99 232.572V235.677C159.99 236.208 159.99 236.739 159.99 237.19C159.99 237.641 159.911 238.172 159.859 238.676C159.62 240.681 159.224 242.665 158.673 244.607C157.609 248.502 155.822 252.158 153.405 255.381C150.973 258.609 147.813 261.207 144.185 262.958C140.511 264.718 136.536 265.754 132.476 266.009C128.369 266.272 124.246 266.103 120.174 265.505C124.225 266.403 128.368 266.812 132.515 266.726C136.725 266.681 140.885 265.811 144.765 264.165Z" fill="#F7DEC9"/>
<path d="M52.2891 227.597C52.2891 227.597 52.6974 228.778 63.5109 243.984C74.3245 259.19 103.683 258.911 130.394 258.911C157.106 258.911 155.749 240.335 155.749 240.335C154.806 243.619 153.201 246.673 151.034 249.304C149.825 250.702 148.33 251.82 146.653 252.583C144.975 253.345 143.154 253.734 141.313 253.723H121.886C120.65 253.719 119.466 253.223 118.593 252.343C117.719 251.463 117.227 250.27 117.223 249.026V248.004C83.4654 247.434 68.0814 235.372 68.0814 235.372C64.0773 233.528 52.2891 227.597 52.2891 227.597Z" fill="#F7DEC9"/>
<path d="M171.041 257.411C173.018 255.642 174.814 253.677 176.402 251.547C177.201 250.481 177.944 249.374 178.628 248.229L180.63 244.859C183.331 240.207 185.09 235.061 185.806 229.72C186.105 227.077 186.224 224.417 186.162 221.759V213.93C186.162 203.488 186.069 193.045 185.859 182.603C185.648 172.16 185.332 161.718 184.805 151.276C184.278 161.722 183.927 172.165 183.751 182.603C183.527 193.045 183.475 203.488 183.448 213.93V221.759C183.521 224.318 183.433 226.88 183.185 229.428C182.615 234.477 181.1 239.371 178.72 243.851L176.863 247.274C176.244 248.389 175.546 249.49 174.887 250.551C172.015 254.816 168.39 258.513 164.192 261.458C163.125 262.201 162.045 262.878 160.912 263.528L157.58 265.558C159.925 264.43 162.309 263.395 164.574 262.069C166.879 260.738 169.046 259.178 171.041 257.411Z" fill="#F7DEC9"/>
<path d="M112.312 15.206C111.926 15.6259 111.635 16.1245 111.458 16.6679C111.282 17.2113 111.223 17.7867 111.287 18.3549C111.35 18.9232 111.535 19.4709 111.828 19.9609C112.12 20.4509 112.514 20.8715 112.983 21.1943C113.452 21.517 113.984 21.7343 114.543 21.8312C115.103 21.9282 115.676 21.9025 116.225 21.7561C116.774 21.6096 117.285 21.3458 117.723 20.9825C118.162 20.6193 118.517 20.1651 118.766 19.651C120.978 16.3338 126.036 9.22182 130.211 6.86C135.743 3.74188 143.488 4.20628 143.488 4.20628C137.902 2.02115 131.778 1.64545 125.97 3.13152C120.649 4.59107 115.605 10.4956 112.312 15.206Z" fill="#F7DEC9"/>
<path d="M97.1516 14.5023C96.8198 15.0019 96.6291 15.5829 96.5997 16.1832C96.5703 16.7836 96.7034 17.3807 96.9848 17.9107C97.2661 18.4408 97.6851 18.8839 98.197 19.1926C98.709 19.5014 99.2945 19.6642 99.8912 19.6638C100.939 19.6606 101.965 19.3683 102.859 18.8185C103.753 18.2688 104.481 17.4827 104.962 16.5456C106.762 13.0614 108.973 9.8091 111.548 6.85953C113.386 4.84023 115.612 3.21804 118.091 2.09132C120.57 0.9646 123.251 0.356823 125.97 0.304837C110.349 -1.60584 101.314 8.13332 97.1516 14.5023Z" fill="#F7DEC9"/>
<path d="M84.2951 15.9225C84.0521 16.29 83.9126 16.7171 83.8915 17.1583C83.8704 17.5994 83.9684 18.0381 84.1752 18.4275C84.382 18.8169 84.6898 19.1425 85.0658 19.3697C85.4418 19.5968 85.8719 19.7169 86.3103 19.7173C87.3287 19.7146 88.3251 19.4183 89.1816 18.8634C90.0382 18.3085 90.7192 17.5182 91.1442 16.5859C93.5808 11.3846 99.6001 1.32698 110.163 0.000119641C110.163 0.000119641 96.1492 -1.80441 84.2951 15.9225Z" fill="#F7DEC9"/>
<path d="M75.6552 19.6641C76.1195 19.6696 76.5756 19.5414 76.97 19.2946C77.3643 19.0478 77.6804 18.6926 77.8812 18.2709C82.7282 7.76211 93.1071 2.17603 93.1071 2.17603C85.4127 4.57646 78.6505 9.32968 73.7586 15.7764C73.4958 16.1362 73.336 16.5618 73.2967 17.0068C73.2573 17.4518 73.34 17.8992 73.5356 18.3001C73.7312 18.7011 74.0323 19.0403 74.406 19.2808C74.7798 19.5213 75.2119 19.6539 75.6552 19.6641Z" fill="#F7DEC9"/>
<path d="M64.17 19.6642H64.9866C65.3435 19.6668 65.696 19.5853 66.0162 19.4264C66.3363 19.2674 66.6152 19.0354 66.8305 18.7487C69.1616 15.93 71.7212 13.3115 74.483 10.9202C70.5317 12.247 65.9217 16.0286 63.5904 18.1781C63.4605 18.2934 63.369 18.4462 63.3283 18.6158C63.2876 18.7854 63.2997 18.9634 63.3631 19.1258C63.4264 19.2882 63.5378 19.4269 63.6822 19.5233C63.8265 19.6196 63.9969 19.6688 64.17 19.6642Z" fill="#F7DEC9"/>
<path d="M80.8446 174.058V173.992C80.904 173.271 80.8207 172.546 80.5995 171.858C80.3782 171.171 80.0235 170.534 79.5558 169.986C79.0881 169.437 78.5169 168.988 77.8753 168.664C77.2337 168.34 76.5346 168.148 75.8186 168.099C75.1027 168.05 74.3841 168.144 73.7048 168.377C73.0255 168.61 72.3989 168.977 71.8616 169.456C71.3243 169.936 70.8869 170.518 70.5749 171.169C70.2628 171.82 70.0824 172.527 70.0442 173.249C69.7229 178.638 69.8595 184.044 70.4525 189.41C70.7159 192.063 71.0188 194.717 71.4535 197.291C71.6536 198.81 71.9751 200.31 72.415 201.776C72.9139 203.329 73.5855 204.82 74.417 206.221C75.235 207.618 76.2119 208.914 77.3278 210.082C77.8656 210.66 78.4327 211.209 79.0269 211.728L79.9489 212.444L80.7392 213.001L86.9823 217.446C91.184 220.379 95.4119 223.258 99.7584 226.005C100.237 226.402 100.853 226.592 101.47 226.532C102.088 226.473 102.657 226.168 103.051 225.686C103.446 225.204 103.634 224.584 103.575 223.962C103.516 223.34 103.214 222.767 102.735 222.369C99.1262 218.707 95.4119 215.177 91.6581 211.688L85.9813 206.513L85.2701 205.876L84.7432 205.359C84.403 205.023 84.0861 204.664 83.7949 204.284C83.206 203.546 82.7064 202.739 82.3066 201.882C81.9144 201.033 81.6141 200.143 81.4109 199.229C81.2148 198.213 81.0959 197.184 81.0553 196.15C80.8972 193.656 80.6997 191.174 80.6206 188.707C80.4189 183.841 80.5025 178.967 80.8709 174.111L80.8446 174.058Z" fill="#F7DEC9"/>
<path d="M64.6047 174.111C64.6047 173.912 64.6047 173.713 64.6047 173.5C64.6535 172.764 64.5538 172.026 64.3116 171.329C64.0694 170.633 63.6898 169.993 63.1956 169.448C62.7013 168.904 62.1028 168.465 61.4359 168.16C60.7691 167.855 60.0478 167.688 59.3155 167.671C58.5832 167.654 57.855 167.787 57.1749 168.061C56.4948 168.335 55.8768 168.745 55.3581 169.266C54.8395 169.787 54.4309 170.409 54.1571 171.093C53.8833 171.777 53.7498 172.511 53.7648 173.248C53.6331 178.848 53.7648 184.381 54.0151 189.927C54.16 192.713 54.3312 195.434 54.621 198.313C54.8415 200.181 55.4328 201.986 56.3596 203.62C57.1306 204.991 58.0116 206.295 58.9938 207.521C62.6058 211.884 66.6727 215.843 71.1245 219.33C75.4051 222.82 79.7912 226.031 84.2957 229.096C84.6767 229.345 85.1351 229.445 85.584 229.376C86.033 229.308 86.4416 229.076 86.7324 228.724C86.8949 228.537 87.018 228.318 87.0942 228.081C87.1705 227.844 87.1985 227.595 87.1763 227.347C87.1541 227.099 87.0824 226.858 86.9654 226.639C86.8483 226.419 86.6884 226.226 86.4953 226.071C82.4254 222.661 78.4609 219.012 74.7334 215.244C71.0409 211.62 67.7345 207.618 64.8682 203.302C64.2544 202.328 63.7256 201.303 63.2876 200.237C62.9411 199.474 62.7571 198.647 62.7476 197.809C62.7476 195.274 62.8925 192.567 63.0374 189.927C63.4062 184.646 63.9067 179.339 64.6047 174.111Z" fill="#F7DEC9"/>
<path d="M49.6166 179.896C49.7219 177.243 49.9195 174.43 50.0907 171.789V171.696C50.1366 171.023 50.0503 170.347 49.8368 169.707C49.6233 169.067 49.2868 168.476 48.8465 167.967C48.4062 167.458 47.8707 167.042 47.2706 166.741C46.6706 166.441 46.0176 166.263 45.3491 166.216C44.6806 166.17 44.0096 166.257 43.3744 166.472C42.7392 166.687 42.1523 167.026 41.6472 167.47C41.1421 167.913 40.7286 168.453 40.4305 169.057C40.1323 169.662 39.9552 170.32 39.9094 170.993C39.4968 176.702 39.4133 182.431 39.6591 188.149C39.7777 191.029 40.0411 193.908 40.4231 196.854C40.647 198.34 40.884 199.826 41.2265 201.352C41.3714 202.108 41.6348 202.931 41.8455 203.714C42.0064 204.265 42.2135 204.802 42.4646 205.319C42.6827 205.779 42.9336 206.222 43.2154 206.646C44.1363 207.979 45.1626 209.235 46.2842 210.401C47.3116 211.489 48.3521 212.511 49.4058 213.492C51.5132 215.469 53.647 217.314 55.8466 219.079C60.2194 222.635 64.6845 225.978 69.3339 229.136C69.7332 229.408 70.2188 229.52 70.6958 229.451C71.1729 229.381 71.6069 229.135 71.9132 228.76C72.2195 228.385 72.376 227.908 72.352 227.423C72.3281 226.938 72.1255 226.48 71.7837 226.137C67.8324 222.236 63.96 218.322 60.1799 214.355C58.3227 212.351 56.4393 210.374 54.6875 208.344C53.8182 207.336 52.9752 206.314 52.1981 205.292C51.4729 204.383 50.8294 203.411 50.2751 202.387C50.1872 202.22 50.1123 202.047 50.0512 201.869C50.0512 201.697 50.0512 201.869 50.0512 201.498C50.0512 201.126 49.8273 200.41 49.7615 199.786C49.6034 198.579 49.5112 197.305 49.419 196.018C49.2873 193.364 49.34 190.71 49.419 188.057C49.498 185.403 49.4585 182.603 49.6166 179.896Z" fill="#F7DEC9"/>
<path d="M35.2982 190.205C35.4036 188.52 35.4299 186.848 35.4958 185.163L35.667 180.134C35.7855 176.777 35.8909 173.421 35.9568 170.064V169.838C35.9749 169.262 35.8765 168.688 35.6676 168.152C35.4586 167.616 35.1435 167.128 34.7413 166.718C34.3392 166.308 33.8585 165.985 33.3285 165.769C32.7984 165.552 32.2302 165.446 31.6584 165.458C31.0865 165.47 30.523 165.599 30.0022 165.837C29.4813 166.075 29.0141 166.417 28.6288 166.843C28.2435 167.269 27.9484 167.77 27.7612 168.314C27.5741 168.859 27.499 169.436 27.5403 170.01C27.6018 173.363 27.6984 176.72 27.8301 180.081L28.0013 185.11C28.0013 186.795 28.0935 188.467 28.1857 190.152V189.887C28.1453 193.908 29.1005 197.875 30.9649 201.431C32.6511 204.727 34.7589 207.788 37.2344 210.533C39.615 213.203 42.2145 215.666 45.0054 217.897C47.7476 220.135 50.6935 222.108 53.8038 223.788C53.962 223.873 54.1456 223.897 54.3202 223.856C54.4947 223.814 54.6483 223.71 54.7521 223.563C54.866 223.4 54.912 223.199 54.8799 223.003C54.8479 222.807 54.7404 222.631 54.5809 222.514C51.844 220.502 49.3036 218.232 46.9942 215.734C44.6772 213.288 42.5669 210.652 40.6852 207.853C38.861 205.158 37.3912 202.237 36.3124 199.162C35.3154 196.363 34.9685 193.372 35.2982 190.418V190.205Z" fill="#F7DEC9"/>
<path d="M19.204 192.395C19.4775 194.532 20.1572 196.595 21.2061 198.472C22.1331 200.243 23.2036 201.934 24.4067 203.527C26.7332 206.659 29.2913 209.608 32.0592 212.351C32.2011 212.477 32.3837 212.547 32.5728 212.547C32.762 212.547 32.9446 212.477 33.0865 212.351C33.1634 212.287 33.2268 212.208 33.2731 212.119C33.3194 212.031 33.3477 211.933 33.3563 211.833C33.3648 211.733 33.3536 211.632 33.3231 211.537C33.2926 211.441 33.2435 211.353 33.1787 211.276C30.7443 208.36 28.5423 205.254 26.5931 201.988C25.632 200.412 24.7952 198.761 24.0906 197.052C23.4001 195.496 23.0111 193.82 22.9447 192.116C22.9447 188.361 23.1291 184.514 23.3266 180.692C23.5242 176.871 23.7745 173.036 24.0642 169.228C24.0708 169.131 24.0708 169.033 24.0642 168.936C23.9999 168.173 23.6492 167.463 23.0834 166.951C22.5177 166.438 21.7795 166.163 21.0191 166.18C20.2587 166.197 19.5333 166.505 18.9905 167.042C18.4478 167.578 18.1285 168.303 18.0977 169.069C18.1899 172.957 18.3084 176.804 18.4665 180.679C18.6245 184.553 18.8221 188.494 19.204 192.395Z" fill="#F7DEC9"/>
<path d="M11.0761 185.986C11.8432 188.741 12.8892 191.409 14.1977 193.948C15.5336 196.409 17.1952 198.677 19.1369 200.688C17.6243 198.415 16.4237 195.947 15.5675 193.35C14.7773 190.785 14.2563 188.144 14.0133 185.469C13.7831 182.821 13.7611 180.159 13.9475 177.508C14.1116 174.904 14.4816 172.317 15.0539 169.772C15.094 169.593 15.1204 169.411 15.1329 169.228C15.0737 168.511 14.7628 167.839 14.2558 167.332C13.7489 166.825 13.0792 166.516 12.3669 166.462C11.6546 166.408 10.9465 166.611 10.3695 167.035C9.79259 167.459 9.38467 168.077 9.219 168.777C9.09036 171.704 9.19607 174.637 9.53511 177.548C9.83655 180.396 10.3517 183.217 11.0761 185.986Z" fill="#F7DEC9"/>
</g>
<defs>
<clipPath id="clip0_201_174">
<rect width="234" height="503" fill="white"/>
</clipPath>
</defs>
</svg>
