<svg xmlns="http://www.w3.org/2000/svg" width="94" height="92" viewBox="0 0 94 92" fill="none">
    <path
        d="M47.0007 7.66699C31.8432 7.66699 19.584 19.6653 19.584 34.5003C19.584 54.6253 47.0007 84.3337 47.0007 84.3337C47.0007 84.3337 74.4173 54.6253 74.4173 34.5003C74.4173 19.6653 62.1581 7.66699 47.0007 7.66699ZM47.0007 44.0837C44.4037 44.0837 41.9132 43.074 40.0769 41.2768C38.2406 39.4795 37.209 37.042 37.209 34.5003C37.209 31.9587 38.2406 29.5211 40.0769 27.7239C41.9132 25.9267 44.4037 24.917 47.0007 24.917C49.5976 24.917 52.0881 25.9267 53.9244 27.7239C55.7607 29.5211 56.7923 31.9587 56.7923 34.5003C56.7923 37.042 55.7607 39.4795 53.9244 41.2768C52.0881 43.074 49.5976 44.0837 47.0007 44.0837Z"
        fill="#0C0401" />
</svg>